<svg width="64" height="64" viewBox="0 0 64 64" fill="none" xmlns="http://www.w3.org/2000/svg">
    <path fill-rule="evenodd" clip-rule="evenodd"
          d="M32 64C49.6731 64 64 49.6731 64 32C64 14.3269 49.6731 0 32 0C14.3269 0 0 14.3269 0 32C0 49.6731 14.3269 64 32 64Z"
          fill="#99C2E8"/>
    <mask id="mask0" mask-type="alpha" maskUnits="userSpaceOnUse" x="0" y="0" width="64" height="64">
        <path fill-rule="evenodd" clip-rule="evenodd"
              d="M32 64C49.6731 64 64 49.6731 64 32C64 14.3269 49.6731 0 32 0C14.3269 0 0 14.3269 0 32C0 49.6731 14.3269 64 32 64Z"
              fill="white"/>
    </mask>
    <g mask="url(#mask0)">
        <path fill-rule="evenodd" clip-rule="evenodd"
              d="M44.1822 31.3325C43.1232 34.9195 40.9646 37.9006 38.1796 39.7083L38.3189 41.256L38.3181 41.319L36.8476 54.0769H27.5218L27.4831 53.8089L25.6802 41.297L25.7469 39.7321C22.9614 37.938 20.7981 34.9721 19.7275 31.3989C19.5342 31.5275 19.3053 31.602 19.0581 31.602C18.3528 31.602 17.7941 30.9931 17.7941 30.2555V26.0817C17.7941 25.345 18.3514 24.7363 19.0554 24.7347C19.7166 17.0292 25.2226 11 31.9447 11C38.6684 11 44.1756 17.0317 44.8351 24.7394C44.8703 24.7363 44.9059 24.7347 44.9419 24.7347C45.6479 24.7347 46.2059 25.3437 46.2059 26.0817V30.2555C46.2059 30.9935 45.6479 31.602 44.9419 31.602C44.6552 31.602 44.3928 31.5014 44.1822 31.3325Z"
              fill="#E7E9E9"/>
        <path fill-rule="evenodd" clip-rule="evenodd"
              d="M38.1756 40.125C38.1196 43.0629 35.3761 46.0769 32 46.0769C28.6092 46.0769 25.8565 43.0366 25.8238 40.0866C24.0669 40.5261 21.3851 41.8516 19.1715 44.0666C17.0279 46.2116 15.3235 49.4359 15.3235 51.9371V67H48.6765V51.9371C48.6765 49.4308 46.9353 46.2011 44.7521 44.0536C42.5689 41.9061 39.9437 40.5986 38.1756 40.125Z"
              fill="#0C5EA8"/>
        <path fill-rule="evenodd" clip-rule="evenodd"
              d="M19.0296 25.7258C19.4678 26.3397 19.6474 26.4301 19.6474 26.368V25.1119C19.5565 21.6963 20.5967 20.3844 21.6003 19.1797C21.6003 19.1797 20.9904 21.804 21.4147 21.2582C23.817 18.1767 34.9434 20.2872 37.2516 16.3104C37.542 18.4997 34.6294 19.16 34.6294 19.16C36.9514 19.5876 38.9631 18.6788 39.5082 17.5995C39.6876 18.4794 39.1363 19.0634 38.3295 19.6651C41.1835 19.1403 41.2296 17.2303 41.2296 17.2303C41.6358 19.7636 44.1441 19.5363 44.5614 22.938C44.9788 25.7258 44.5614 26.3526 44.9788 26.3526C44.9788 26.3526 45.5966 25.7258 45.5925 23.8837C45.5925 13.6237 41.2296 7.92308 32.0043 7.92308C23.404 7.92308 18.4161 13.6237 18.4161 22.7442C18.4118 24.5435 19.0296 25.7258 19.0296 25.7258Z"
              fill="#FFA733"/>
        <path fill-rule="evenodd" clip-rule="evenodd"
              d="M27.372 27.182C26.5207 27.254 26.2824 25.8439 26.5389 24.923C26.5872 24.7485 26.869 23.9538 27.3679 23.9538C27.8662 23.9538 28.0862 24.3882 28.1168 24.4629C28.4834 25.3607 28.3033 27.1026 27.372 27.182Z"
              fill="#3E3832"/>
        <path fill-rule="evenodd" clip-rule="evenodd"
              d="M37.2456 27.182C38.0969 27.254 38.3352 25.8439 38.0787 24.923C38.0305 24.7485 37.7487 23.9538 37.2498 23.9538C36.7514 23.9538 36.5314 24.3882 36.5008 24.4629C36.1343 25.3607 36.3143 27.1026 37.2456 27.182Z"
              fill="#3E3832"/>
        <path
            d="M32.6244 28.5716C33.1335 28.4804 33.4812 28.5376 33.6057 28.7155C34.0757 29.3879 33.9253 30.0992 33.119 30.6832C32.6951 30.9901 32.1115 31.0981 31.8026 30.9389C31.6515 30.8611 31.4749 30.9406 31.408 31.1164C31.3412 31.2923 31.4094 31.4979 31.5605 31.5757C32.0711 31.8388 32.8563 31.6934 33.435 31.2745C34.5307 30.4809 34.7815 29.2943 34.0696 28.2758C33.7683 27.8455 33.235 27.7576 32.5334 27.8834C32.3701 27.9126 32.2581 28.0904 32.2833 28.2805C32.3084 28.4705 32.4611 28.6009 32.6244 28.5716Z"
            fill="#3E3832"/>
        <path
            d="M36.3059 33.1925C36.276 33.2588 36.2074 33.3857 36.0972 33.5529C35.9107 33.8358 35.6764 34.1195 35.3919 34.3841C34.5442 35.1724 33.4407 35.6282 32.0363 35.5865C30.667 35.5459 29.5685 35.0971 28.7072 34.3733C28.391 34.1076 28.1299 33.8231 27.9213 33.5394C27.7982 33.3721 27.7214 33.2453 27.6878 33.1792C27.6069 33.0203 27.4082 32.9548 27.244 33.033C27.0798 33.1113 27.0121 33.3036 27.093 33.4625C27.1416 33.5583 27.2364 33.7147 27.3812 33.9115C27.619 34.2348 27.9147 34.5571 28.2726 34.8578C29.2448 35.6748 30.4873 36.1825 32.016 36.2278C33.6079 36.2751 34.8805 35.7493 35.8512 34.8467C36.1758 34.5449 36.4426 34.2218 36.6561 33.898C36.7859 33.701 36.8703 33.5448 36.9134 33.4492C36.9866 33.2869 36.91 33.0978 36.7423 33.0269C36.5745 32.956 36.3791 33.0302 36.3059 33.1925Z"
            fill="#3E3832"/>
        <path fill-rule="evenodd" clip-rule="evenodd"
              d="M27.0588 34.5165C27.0588 33.4241 29.271 33.1539 32 33.1539C34.729 33.1539 36.9412 33.4241 36.9412 34.5165C36.9412 35.6089 35.5747 37.8647 32 37.8647C28.4253 37.8647 27.0588 35.6089 27.0588 34.5165ZM31.8521 31.8936C29.9398 31.8936 28.9237 32.4428 26.1303 33.2127C22.1605 34.3068 20.3265 31.2419 19.6779 28.2308C19.3058 26.5031 19.0294 27.2298 19.0294 27.2298C19.0294 39.0326 26.9425 43.0177 32.1053 43.0177C37.3496 43.0177 44.9706 39.1841 44.9706 27C44.9706 26.7289 44.4457 26.8624 44.3529 27.2298C43.808 29.3891 44.423 34.8851 37.3924 33.2127C34.9312 32.1789 33.7645 31.8936 31.8521 31.8936Z"
              fill="#FFA733"/>
        <path fill-rule="evenodd" clip-rule="evenodd"
              d="M25.0422 7.78625C27.1243 6.69555 29.4795 6.07692 31.9767 6.07692C34.625 6.07692 37.1151 6.76851 39.2869 7.98518V8.22557C43.2801 10.5549 45.9814 14.7351 46.1103 19.5321H46.9613C47.5649 19.5321 48.0588 20.0092 48.0588 20.5923V30.0881C48.0588 30.6712 47.5649 31.1482 46.9613 31.1482L46.4396 31.1482C45.4319 34.409 40.6797 36.8929 34.9216 36.9734V37.3236C34.9216 37.7377 34.5711 38.0769 34.1424 38.0769H29.8116C29.3823 38.0769 29.0317 37.7377 29.0317 37.3236V35.7059C29.0317 35.2919 29.3823 34.9526 29.8116 34.9526H34.1424C34.5711 34.9526 34.9216 35.2919 34.9216 35.7059V36.26C39.6098 35.7948 43.4622 33.8048 45.0786 31.1482H44.6029C43.9992 31.1482 43.5053 30.6712 43.5053 30.0881V20.5923C43.5053 20.0092 43.9992 19.5321 44.6029 19.5321H45.1532C44.556 15.6624 42.3643 12.3337 39.2869 10.2702V10.2944C37.1422 8.91936 34.645 8.12737 31.9767 8.12737C29.4627 8.12737 27.1004 8.82893 25.0422 10.0593V10.0273C21.7679 12.0667 19.4213 15.5067 18.8001 19.5321H19.3971C20.0008 19.5321 20.4947 20.0092 20.4947 20.5923V30.0881C20.4947 30.6712 20.0008 31.1482 19.3971 31.1482H17.0387C16.4351 31.1482 15.9412 30.6712 15.9412 30.0881V20.5923C15.9412 20.0092 16.4351 19.5321 17.0387 19.5321H17.8429C17.9758 14.586 20.8432 10.2957 25.0422 8.0138V7.78625Z"
              fill="#3E3832"/>
        <path fill-rule="evenodd" clip-rule="evenodd"
              d="M43.1651 58H32.8343C32.3733 58 32 57.621 32 57.153V51.5143C32 51.0463 32.3733 50.6667 32.8343 50.6667H43.1651C43.6261 50.6667 44 51.0463 44 51.5143V57.153C44 57.621 43.6261 58 43.1651 58Z"
              fill="white"/>
        <path fill-rule="evenodd" clip-rule="evenodd"
              d="M38.6207 51.8307H37.5502C37.4709 51.8307 37.407 51.7671 37.407 51.6882V51.5086C37.407 51.4303 37.4709 51.3661 37.5502 51.3661H38.6207C38.7 51.3661 38.764 51.4303 38.764 51.5086V51.6882C38.764 51.7671 38.7 51.8307 38.6207 51.8307Z"
              fill="#3E3832"/>
        <path fill-rule="evenodd" clip-rule="evenodd" d="M37.7755 51.6667H38.3957V50H37.7755V51.6667Z" fill="#78706A"/>
        <path fill-rule="evenodd" clip-rule="evenodd"
              d="M38.1269 56.6651C36.839 56.6651 35.7947 55.6208 35.7947 54.3327C35.7947 53.0444 36.839 52 38.1269 52C39.4153 52 40.4597 53.0444 40.4597 54.3327C40.4597 55.6208 39.4153 56.6651 38.1269 56.6651Z"
              fill="#C30000"/>
        <path fill-rule="evenodd" clip-rule="evenodd"
              d="M34.6667 55.3511L35.1434 54.1712H35.6015L35.1254 55.3511H34.6667Z" fill="#C30000"/>
        <path fill-rule="evenodd" clip-rule="evenodd"
              d="M40.5495 55.3511L41.0202 54.1712H41.2699L40.7993 55.3511H40.5495Z" fill="#C30000"/>
        <path fill-rule="evenodd" clip-rule="evenodd"
              d="M41.4751 55.3511L41.9457 54.1712H42.0783L41.6077 55.3511H41.4751Z" fill="#C30000"/>
        <path fill-rule="evenodd" clip-rule="evenodd"
              d="M40.1165 54.1712H39.7018C39.7018 54.1712 39.6732 54.1712 39.6631 54.1964L39.4337 54.8989L39.2044 54.1964C39.1943 54.1712 39.1655 54.1712 39.1655 54.1712H38.3683C38.351 54.1712 38.3366 54.1856 38.3366 54.2028V54.4413C38.3366 54.2521 38.1352 54.1712 38.0173 54.1712C37.7533 54.1712 37.5765 54.3451 37.5215 54.6095C37.5185 54.4341 37.5039 54.3713 37.4567 54.3069C37.435 54.2754 37.4036 54.2489 37.3694 54.2269C37.2991 54.1857 37.2359 54.1712 37.1002 54.1712H36.9409C36.9409 54.1712 36.9121 54.1712 36.9019 54.1964L36.7569 54.5558V54.2028C36.7569 54.1856 36.7425 54.1712 36.7253 54.1712H36.3566C36.3566 54.1712 36.3281 54.1712 36.3177 54.1964L36.167 54.5701C36.167 54.5701 36.152 54.6074 36.1864 54.6074H36.3281V55.3194C36.3281 55.3371 36.342 55.3511 36.3598 55.3511H36.7253C36.7425 55.3511 36.7569 55.3371 36.7569 55.3194V54.6074H36.8994C36.9812 54.6074 36.9985 54.6097 37.0303 54.6245C37.0494 54.6317 37.0667 54.6464 37.0761 54.6633C37.0954 54.6995 37.1002 54.7431 37.1002 54.8716V55.3194C37.1002 55.3371 37.1144 55.3511 37.132 55.3511H37.4823C37.4823 55.3511 37.5219 55.3511 37.5376 55.312L37.6152 55.1201C37.7185 55.2647 37.8884 55.3511 38.0996 55.3511H38.1457C38.1457 55.3511 38.1856 55.3511 38.2013 55.312L38.3366 54.9771V55.3194C38.3366 55.3371 38.351 55.3511 38.3683 55.3511H38.7259C38.7259 55.3511 38.7654 55.3511 38.7812 55.312C38.7812 55.312 38.9243 54.9569 38.9248 54.9542H38.9251C38.9306 54.9246 38.8932 54.9246 38.8932 54.9246H38.7656V54.3153L39.1672 55.312C39.1829 55.3511 39.2224 55.3511 39.2224 55.3511H39.6449C39.6449 55.3511 39.6847 55.3511 39.7004 55.312L40.1457 54.2094C40.1611 54.1712 40.1165 54.1712 40.1165 54.1712ZM38.3366 54.9246H38.0963C38.0007 54.9246 37.9229 54.8472 37.9229 54.7515C37.9229 54.6559 38.0007 54.578 38.0963 54.578H38.1635C38.2589 54.578 38.3366 54.6559 38.3366 54.7515V54.9246Z"
              fill="white"/>
    </g>
</svg>
