<svg width="80" height="80" viewBox="0 0 80 80" fill="none" xmlns="http://www.w3.org/2000/svg">
    <path fill-rule="evenodd" clip-rule="evenodd" d="M40 80C62.0914 80 80 62.0914 80 40C80 17.9086 62.0914 0 40 0C17.9086 0 0 17.9086 0 40C0 62.0914 17.9086 80 40 80Z" fill="#C2EAF7"/>
    <mask id="mask0" mask-type="alpha" maskUnits="userSpaceOnUse" x="0" y="0" width="80" height="80">
        <path fill-rule="evenodd" clip-rule="evenodd" d="M40 80C62.0914 80 80 62.0914 80 40C80 17.9086 62.0914 0 40 0C17.9086 0 0 17.9086 0 40C0 62.0914 17.9086 80 40 80Z" fill="white"/>
    </mask>
    <g mask="url(#mask0)">
        <path fill-rule="evenodd" clip-rule="evenodd"
              d="M55.2273 39.1657C53.9035 43.6494 51.2053 47.3758 47.724 49.6354L47.8981 51.57L47.8971 51.6487L46.0591 67.5962H34.4018L34.3534 67.2611L32.0998 51.6213L32.1832 49.6652C28.7013 47.4225 25.9972 43.7151 24.6589 39.2486C24.4173 39.4093 24.1311 39.5025 23.8222 39.5025C22.9406 39.5025 22.2422 38.7414 22.2422 37.8194V32.6022C22.2422 31.6813 22.9388 30.9203 23.8188 30.9183C24.6453 21.2865 31.5278 13.75 39.9305 13.75C48.335 13.75 55.2191 21.2897 56.0434 30.9242C56.0874 30.9203 56.1319 30.9183 56.1769 30.9183C57.0594 30.9183 57.7569 31.6796 57.7569 32.6022V37.8194C57.7569 38.7419 57.0595 39.5025 56.1769 39.5025C55.8186 39.5025 55.4905 39.3768 55.2273 39.1657Z"
              fill="#E7E9E9"/>
        <path fill-rule="evenodd" clip-rule="evenodd"
              d="M47.7194 50.1558C47.6494 53.8282 44.2201 57.5958 39.9999 57.5958C35.7614 57.5958 32.3206 53.7953 32.2797 50.1079C30.0835 50.6573 26.7312 52.3141 23.9643 55.0829C21.2848 57.7642 19.1543 61.7945 19.1543 64.921V83.7496H60.8455V64.921C60.8455 61.7881 58.669 57.7509 55.94 55.0666C53.2111 52.3823 49.9296 50.7479 47.7194 50.1558Z"
              fill="#0C5472"/>
        <path fill-rule="evenodd" clip-rule="evenodd"
              d="M23.7884 32.1572C24.3361 32.9245 24.5607 33.0376 24.5607 32.9599V31.3898C24.447 27.1203 25.7472 25.4805 27.0018 23.9745C27.0018 23.9745 26.2394 27.2549 26.7697 26.5727C29.7726 22.7208 43.6806 25.359 46.5659 20.388C46.9288 23.1246 43.2881 23.9499 43.2881 23.9499C46.1906 24.4845 48.7052 23.3484 49.3866 21.9994C49.6109 23.0992 48.9217 23.8292 47.9132 24.5814C51.4807 23.9253 51.5383 21.5379 51.5383 21.5379C52.0461 24.7044 55.1815 24.4204 55.7032 28.6725C56.2249 32.1572 55.7032 32.9407 56.2249 32.9407C56.2249 32.9407 56.9972 32.1572 56.992 29.8546C56.992 17.0296 51.5383 9.90381 40.0068 9.90381C29.2564 9.90381 23.0215 17.0296 23.0215 28.4302C23.0161 30.6793 23.7884 32.1572 23.7884 32.1572Z"
              fill="#FFA733"/>
        <path fill-rule="evenodd" clip-rule="evenodd"
              d="M34.2143 33.9775C33.1502 34.0676 32.8524 32.305 33.173 31.1538C33.2333 30.9357 33.5856 29.9424 34.2092 29.9424C34.8321 29.9424 35.1071 30.4853 35.1454 30.5787C35.6035 31.7009 35.3785 33.8784 34.2143 33.9775"
              fill="#3E3832"/>
        <path fill-rule="evenodd" clip-rule="evenodd"
              d="M46.5569 33.9775C47.6211 34.0676 47.9189 32.305 47.5983 31.1538C47.538 30.9357 47.1857 29.9424 46.5621 29.9424C45.9392 29.9424 45.6641 30.4853 45.6259 30.5787C45.1677 31.7009 45.3928 33.8784 46.5569 33.9775"
              fill="#3E3832"/>
        <path d="M40.7791 35.7146C41.4155 35.6006 41.8501 35.6722 42.0057 35.8945C42.5932 36.735 42.4053 37.6241 41.3974 38.3541C40.8675 38.7377 40.138 38.8727 39.7519 38.6738C39.563 38.5765 39.3422 38.6759 39.2586 38.8957C39.1751 39.1155 39.2604 39.3725 39.4492 39.4698C40.0875 39.7986 41.069 39.6169 41.7923 39.0932C43.162 38.1013 43.4755 36.618 42.5856 35.3449C42.209 34.8069 41.5424 34.6972 40.6653 34.8543C40.4612 34.8909 40.3213 35.1131 40.3527 35.3507C40.3841 35.5883 40.575 35.7512 40.7791 35.7146Z"
              fill="#3E3832"/>
        <path d="M45.3811 41.4907C45.3437 41.5735 45.258 41.7321 45.1202 41.9411C44.8871 42.2948 44.5943 42.6494 44.2387 42.9801C43.179 43.9655 41.7997 44.5353 40.0442 44.4832C38.3324 44.4324 36.9593 43.8713 35.8827 42.9667C35.4875 42.6345 35.1611 42.2788 34.9003 41.9243C34.7465 41.7152 34.6504 41.5566 34.6084 41.474C34.5074 41.2753 34.259 41.1935 34.0537 41.2913C33.8484 41.3891 33.7639 41.6295 33.8649 41.8282C33.9258 41.9479 34.0442 42.1433 34.2253 42.3894C34.5225 42.7935 34.8921 43.1964 35.3395 43.5723C36.5548 44.5935 38.1079 45.2281 40.0188 45.2848C42.0086 45.3439 43.5994 44.6867 44.8128 43.5584C45.2185 43.1812 45.552 42.7773 45.8188 42.3725C45.9811 42.1263 46.0866 41.931 46.1405 41.8116C46.232 41.6086 46.1363 41.3722 45.9266 41.2836C45.7168 41.195 45.4726 41.2877 45.3811 41.4907Z"
              fill="#3E3832"/>
        <path fill-rule="evenodd" clip-rule="evenodd"
              d="M33.8239 43.1457C33.8239 41.7803 36.5891 41.4424 40.0003 41.4424C43.4116 41.4424 46.1768 41.7803 46.1768 43.1457C46.1768 44.5112 44.4687 47.3309 40.0003 47.3309C35.532 47.3309 33.8239 44.5112 33.8239 43.1457ZM39.8155 39.8671C37.4251 39.8671 36.155 40.5536 32.6632 41.516C27.7009 42.8836 25.4084 39.0525 24.5978 35.2886C24.1326 33.1289 23.7871 34.0373 23.7871 34.0373C23.7871 48.7908 33.6784 53.7722 40.132 53.7722C46.6873 53.7722 56.2136 48.9803 56.2136 33.7501C56.2136 33.4113 55.5574 33.5781 55.4415 34.0373C54.7603 36.7366 55.529 43.6066 46.7409 41.516C43.6643 40.2237 42.2059 39.8671 39.8155 39.8671Z"
              fill="#FFA733"/>
        <path fill-rule="evenodd" clip-rule="evenodd"
              d="M31.304 9.73285C33.9066 8.36947 36.8506 7.59619 39.9721 7.59619C43.2825 7.59619 46.3952 8.46068 49.1099 9.98152V10.282C54.1014 13.1937 57.478 18.4189 57.6392 24.4152H58.7029C59.4574 24.4152 60.0748 25.0116 60.0748 25.7404V37.6101C60.0748 38.339 59.4574 38.9353 58.7029 38.9353L58.0508 38.9353C56.7911 43.0113 50.8509 46.1161 43.6533 46.2168V46.6545C43.6533 47.1721 43.2151 47.5962 42.6792 47.5962H37.2658C36.7291 47.5962 36.2909 47.1721 36.2909 46.6545V44.6325C36.2909 44.1149 36.7291 43.6908 37.2658 43.6908H42.6792C43.2151 43.6908 43.6533 44.1149 43.6533 44.6325V45.325C49.5135 44.7435 54.329 42.256 56.3495 38.9353H55.7549C55.0003 38.9353 54.3829 38.339 54.3829 37.6101V25.7404C54.3829 25.0116 55.0003 24.4152 55.7549 24.4152H56.4427C55.6963 19.578 52.9567 15.4171 49.1099 12.8378V12.8681C46.429 11.1492 43.3075 10.1592 39.9721 10.1592C36.8296 10.1592 33.8768 11.0362 31.304 12.5742V12.5342C27.2111 15.0834 24.2778 19.3834 23.5013 24.4152H24.2477C25.0022 24.4152 25.6196 25.0116 25.6196 25.7404V37.6101C25.6196 38.339 25.0022 38.9353 24.2477 38.9353H21.2997C20.5451 38.9353 19.9277 38.339 19.9277 37.6101V25.7404C19.9277 25.0116 20.5451 24.4152 21.2997 24.4152H22.3049C22.471 18.2325 26.0552 12.8697 31.304 10.0173V9.73285Z"
              fill="#3E3832"/>
        <path fill-rule="evenodd" clip-rule="evenodd"
              d="M53.9563 72.5002H41.0429C40.4666 72.5002 40 72.0265 40 71.4414V64.3931C40 63.808 40.4666 63.3335 41.0429 63.3335H53.9563C54.5326 63.3335 55 63.808 55 64.3931V71.4414C55 72.0265 54.5326 72.5002 53.9563 72.5002"
              fill="white"/>
        <path fill-rule="evenodd" clip-rule="evenodd"
              d="M48.275 64.7882H46.9368C46.8377 64.7882 46.7578 64.7087 46.7578 64.6101V64.3856C46.7578 64.2877 46.8377 64.2075 46.9368 64.2075H48.275C48.3741 64.2075 48.454 64.2877 48.454 64.3856V64.6101C48.454 64.7087 48.3741 64.7882 48.275 64.7882"
              fill="#3E3832"/>
        <path fill-rule="evenodd" clip-rule="evenodd" d="M47.2188 64.5833H47.994V62.5H47.2188V64.5833Z" fill="#78706A"/>
        <path fill-rule="evenodd" clip-rule="evenodd"
              d="M47.6594 70.8313C46.0495 70.8313 44.7441 69.526 44.7441 67.9159C44.7441 66.3056 46.0495 65 47.6594 65C49.2699 65 50.5754 66.3056 50.5754 67.9159C50.5754 69.526 49.2699 70.8313 47.6594 70.8313Z"
              fill="#C30000"/>
        <path fill-rule="evenodd" clip-rule="evenodd" d="M43.334 69.1887L43.9299 67.7139H44.5025L43.9073 69.1887H43.334Z" fill="#C30000"/>
        <path fill-rule="evenodd" clip-rule="evenodd" d="M50.6875 69.1887L51.2758 67.7139H51.588L50.9997 69.1887H50.6875Z" fill="#C30000"/>
        <path fill-rule="evenodd" clip-rule="evenodd" d="M51.8438 69.1887L52.432 67.7139H52.5977L52.0095 69.1887H51.8438Z" fill="#C30000"/>
        <path fill-rule="evenodd" clip-rule="evenodd"
              d="M50.146 67.7139H49.6277C49.6277 67.7139 49.592 67.7139 49.5793 67.7454L49.2925 68.6235L49.0059 67.7454C48.9933 67.7139 48.9573 67.7139 48.9573 67.7139H47.9608C47.9392 67.7139 47.9211 67.7319 47.9211 67.7533V68.0515C47.9211 67.815 47.6694 67.7139 47.522 67.7139C47.192 67.7139 46.971 67.9313 46.9023 68.2618C46.8985 68.0425 46.8803 67.9639 46.8212 67.8835C46.7941 67.8441 46.7549 67.8109 46.7122 67.7835C46.6243 67.732 46.5454 67.7139 46.3757 67.7139H46.1765C46.1765 67.7139 46.1405 67.7139 46.1278 67.7454L45.9466 68.1946V67.7533C45.9466 67.7319 45.9286 67.7139 45.9071 67.7139H45.4461C45.4461 67.7139 45.4105 67.7139 45.3976 67.7454L45.2092 68.2125C45.2092 68.2125 45.1904 68.2592 45.2334 68.2592H45.4105V69.1491C45.4105 69.1712 45.4279 69.1887 45.4501 69.1887H45.9071C45.9286 69.1887 45.9466 69.1712 45.9466 69.1491V68.2592H46.1247C46.2269 68.2592 46.2485 68.262 46.2883 68.2805C46.3122 68.2895 46.3338 68.3078 46.3456 68.3289C46.3697 68.3743 46.3757 68.4287 46.3757 68.5894V69.1491C46.3757 69.1712 46.3934 69.1887 46.4154 69.1887H46.8533C46.8533 69.1887 46.9028 69.1887 46.9224 69.1399L47.0194 68.9C47.1485 69.0807 47.3609 69.1887 47.6249 69.1887H47.6826C47.6826 69.1887 47.7324 69.1887 47.7521 69.1399L47.9211 68.7212V69.1491C47.9211 69.1712 47.9392 69.1887 47.9608 69.1887H48.4078C48.4078 69.1887 48.4572 69.1887 48.477 69.1399C48.477 69.1399 48.6558 68.6959 48.6565 68.6926H48.6567C48.6636 68.6557 48.6169 68.6557 48.6169 68.6557H48.4574V67.8939L48.9594 69.1399C48.979 69.1887 49.0285 69.1887 49.0285 69.1887H49.5566C49.5566 69.1887 49.6063 69.1887 49.6259 69.1399L50.1825 67.7616C50.2017 67.7139 50.146 67.7139 50.146 67.7139V67.7139ZM47.9211 68.6557H47.6208C47.5013 68.6557 47.4041 68.5589 47.4041 68.4392C47.4041 68.3197 47.5013 68.2223 47.6208 68.2223H47.7048C47.824 68.2223 47.9211 68.3197 47.9211 68.4392V68.6557Z"
              fill="white"/>
    </g>
</svg>
