<svg width="50" height="50" viewBox="0 0 50 50" fill="none" xmlns="http://www.w3.org/2000/svg">
    <path fill-rule="evenodd" clip-rule="evenodd" d="M18.0125 38.7583C18.2083 38.9542 18.475 39.0625 18.75 39.0625H18.8062C19.1 39.0458 19.375 38.9042 19.5604 38.675L45.6021 6.38332C45.9646 5.93541 45.8937 5.27916 45.4458 4.91874C44.9979 4.55624 44.3417 4.62707 43.9812 5.07499L18.6646 36.4646L9.06875 26.8687C8.6625 26.4625 8.00208 26.4625 7.59583 26.8687C7.18958 27.275 7.18958 27.9354 7.59583 28.3417L18.0125 38.7583ZM1.04167 50H38.5417C39.1167 50 39.5833 49.5333 39.5833 48.9583V25C39.5833 24.425 39.1167 23.9583 38.5417 23.9583C37.9667 23.9583 37.5 24.425 37.5 25V47.9167H2.08333V12.5H27.0833C27.6583 12.5 28.125 12.0333 28.125 11.4583C28.125 10.8833 27.6583 10.4167 27.0833 10.4167H1.04167C0.466667 10.4167 0 10.8833 0 11.4583V48.9583C0 49.5333 0.466667 50 1.04167 50Z" fill="#3E3832"/>
</svg>
