<svg width="44" height="44" viewBox="0 0 44 44" fill="none" xmlns="http://www.w3.org/2000/svg">
    <path fill-rule="evenodd" clip-rule="evenodd" d="M0.923678 22.3698C1.12608 34.0318 10.2617 43.1674 21.7212 43.1674L22.0966 43.1637C33.9554 42.9558 43.4387 33.2976 43.2363 21.6338C43.0321 9.97376 33.9002 0.839996 22.4406 0.839996L22.0634 0.843676C16.3962 0.943036 11.0602 3.232 7.04352 7.29472C2.9992 11.3814 0.826158 16.7376 0.923678 22.3698ZM22.0947 2.68368L22.4406 2.68C32.8863 2.68 41.2105 11.0189 41.3963 21.6651C41.5803 32.315 32.9084 41.1323 22.0634 41.3237L21.7212 41.3274C11.2755 41.3274 2.94952 32.9866 2.76368 22.3386C2.67536 17.205 4.65888 12.3216 8.35176 8.58824C12.0299 4.8696 16.9096 2.77384 22.0947 2.68368ZM22.08 25.68C21.5722 25.68 21.16 25.2678 21.16 24.76V11.88C21.16 11.3722 21.5722 10.96 22.08 10.96C22.5878 10.96 23 11.3722 23 11.88V24.76C23 25.2678 22.5878 25.68 22.08 25.68ZM23.92 31.2C23.92 32.2162 23.0962 33.04 22.08 33.04C21.0638 33.04 20.24 32.2162 20.24 31.2C20.24 30.1838 21.0638 29.36 22.08 29.36C23.0962 29.36 23.92 30.1838 23.92 31.2Z" fill="#3E3832"/>
</svg>
