<?xml version="1.0" encoding="utf-8"?>
<!-- Generator: Adobe Illustrator 26.0.3, SVG Export Plug-In . SVG Version: 6.00 Build 0)  -->
<svg version="1.1" id="Layer_1" xmlns="http://www.w3.org/2000/svg" xmlns:xlink="http://www.w3.org/1999/xlink" x="0px" y="0px"
	 viewBox="0 0 59.2 81.5" style="enable-background:new 0 0 59.2 81.5;" xml:space="preserve">
<style type="text/css">
	.st0{fill-rule:evenodd;clip-rule:evenodd;fill:#F1F1F1;}
	.st1{fill-rule:evenodd;clip-rule:evenodd;fill:#3386E0;}
	.st2{fill-rule:evenodd;clip-rule:evenodd;fill:#D05C4A;}
	.st3{fill-rule:evenodd;clip-rule:evenodd;fill:#262626;}
	.st4{fill:#262626;}
	.st5{fill-rule:evenodd;clip-rule:evenodd;fill:#FFFFFF;}
	.st6{fill-rule:evenodd;clip-rule:evenodd;fill:#3E3832;}
	.st7{fill-rule:evenodd;clip-rule:evenodd;fill:#78706A;}
	.st8{fill-rule:evenodd;clip-rule:evenodd;fill:#C30000;}
</style>
<path class="st0" d="M47.7,33.3c-1.5,4.9-4.6,9-8.4,11.5l0.2,2.2l0,0.1l-2.1,18.1H24.1l-0.1-0.4L21.5,47l0.1-2.2
	c-3.9-2.5-6.9-6.6-8.5-11.5c-0.1,0-0.1,0-0.2,0c-1,0-1.8-0.9-1.8-1.9v-5.9c0-0.7,0.4-1.3,0.9-1.7c0.8-11,8.7-19.7,18.3-19.7
	c9.6,0,17.4,8.6,18.3,19.6c0.6,0.3,1.1,1,1.1,1.7v5.9c0,1-0.8,1.9-1.8,1.9C47.9,33.3,47.8,33.3,47.7,33.3z"/>
<path class="st1" d="M38.8,45.4c-0.1,3.9-3.8,8-8.3,8c-4.6,0-8.3-4.1-8.3-8c-2.4,0.6-6,2.4-8.9,5.3c-2.9,2.9-5.2,7.2-5.2,10.6v20.2
	h44.9V61.2c0-3.4-2.3-7.7-5.3-10.6C44.7,47.8,41.2,46,38.8,45.4z"/>
<path class="st2" d="M22,45.5c-2.2,0.8-5.8,2.5-8.6,5.1c-8.1-1.8-11.7-6-11.7-6s7.4-7.2,7.4-19.7v0c0-14.7,8-24.8,21.2-24.8
	c13.2,0,21.2,10.1,21.2,24.8h0c0,12.5,7.4,19.7,7.4,19.7s-3.6,4.2-11.7,6l0,0c-2.7-2.4-6.5-4.2-8.6-5l0,0l-0.1-0.9l0-0.1
	c4-2.5,7.1-6.7,8.5-11.8c0.2,0.1,0.4,0.2,0.6,0.2c0.7,0,1.3-0.7,1.3-1.5v-5.9c0-0.7-0.4-1.3-1-1.4c0,0,0,0,0,0
	c-18.8,2.1-25.5-10.6-26.1-10.6c0,0-6.2,4.4-9.2,9.7c0,0-0.5,1-0.5,1c-0.5,0.2-0.9,0.7-0.9,1.4v5.9c0,0.8,0.6,1.5,1.3,1.5
	c0.2,0,0.3,0,0.5-0.1c1.5,5.1,4.6,9.3,8.6,11.8l0,0L22,45.5L22,45.5z"/>
<path class="st3" d="M24.1,28.3c-1.2,0.1-1.5-1.7-1.1-2.9c0.1-0.2,0.4-1.2,1.1-1.2c0.7,0,1,0.6,1,0.7C25.6,26,25.4,28.2,24.1,28.3z"
	/>
<path class="st3" d="M37.5,28.3c1.2,0.1,1.5-1.7,1.1-2.9c-0.1-0.2-0.4-1.2-1.1-1.2c-0.7,0-1,0.6-1,0.7C36,26,36.3,28.2,37.5,28.3z"
	/>
<path class="st4" d="M31.2,30.1c0.7-0.1,1.2,0,1.3,0.2c0.6,0.9,0.4,1.8-0.7,2.5c-0.6,0.4-1.4,0.5-1.8,0.3c-0.2-0.1-0.4,0-0.5,0.2
	c-0.1,0.2,0,0.5,0.2,0.6c0.7,0.3,1.8,0.2,2.6-0.4c1.5-1,1.8-2.5,0.9-3.8c-0.4-0.6-1.1-0.7-2.1-0.5c-0.2,0-0.4,0.3-0.3,0.5
	C30.8,30,31,30.1,31.2,30.1z"/>
<path class="st4" d="M36.3,36c0,0.1-0.1,0.2-0.3,0.5c-0.3,0.4-0.6,0.7-1,1.1c-1.2,1-2.7,1.6-4.6,1.5c-1.9-0.1-3.4-0.6-4.5-1.6
	c-0.4-0.3-0.8-0.7-1.1-1.1c-0.2-0.2-0.3-0.4-0.3-0.5c-0.1-0.2-0.4-0.3-0.6-0.2c-0.2,0.1-0.3,0.3-0.2,0.6c0.1,0.1,0.2,0.3,0.4,0.6
	c0.3,0.4,0.7,0.8,1.2,1.2c1.3,1,3,1.7,5.1,1.8c2.2,0.1,3.9-0.6,5.2-1.8c0.4-0.4,0.8-0.8,1.1-1.2c0.2-0.3,0.3-0.5,0.4-0.6
	c0.1-0.2,0-0.5-0.2-0.5C36.6,35.7,36.4,35.8,36.3,36z"/>
<path class="st5" d="M47,70.5H34c-0.6,0-1-0.5-1-1.1v-7c0-0.6,0.5-1.1,1-1.1H47c0.6,0,1,0.5,1,1.1v7C48,70,47.5,70.5,47,70.5"/>
<path class="st6" d="M41.3,62.8h-1.3c-0.1,0-0.2-0.1-0.2-0.2v-0.2c0-0.1,0.1-0.2,0.2-0.2h1.3c0.1,0,0.2,0.1,0.2,0.2v0.2
	C41.5,62.7,41.4,62.8,41.3,62.8"/>
<path class="st7" d="M40.2,62.6H41v-2.1h-0.8V62.6z"/>
<path class="st8" d="M40.7,68.8c-1.6,0-2.9-1.3-2.9-2.9c0-1.6,1.3-2.9,2.9-2.9c1.6,0,2.9,1.3,2.9,2.9C43.6,67.5,42.3,68.8,40.7,68.8
	z"/>
<path class="st8" d="M36.3,67.2l0.6-1.5h0.6l-0.6,1.5H36.3z"/>
<path class="st8" d="M43.7,67.2l0.6-1.5h0.3L44,67.2H43.7z"/>
<path class="st8" d="M44.8,67.2l0.6-1.5h0.2L45,67.2H44.8z"/>
<path class="st5" d="M43.1,65.7h-0.5c0,0,0,0,0,0l-0.3,0.9L42,65.7c0,0,0,0,0,0h-1c0,0,0,0,0,0V66c0-0.2-0.3-0.3-0.4-0.3
	c-0.3,0-0.6,0.2-0.6,0.5c0-0.2,0-0.3-0.1-0.4c0,0-0.1-0.1-0.1-0.1c-0.1-0.1-0.2-0.1-0.3-0.1h-0.2c0,0,0,0,0,0l-0.2,0.4v-0.4
	c0,0,0,0,0,0h-0.5c0,0,0,0,0,0l-0.2,0.5c0,0,0,0,0,0h0.2v0.9c0,0,0,0,0,0h0.5c0,0,0,0,0,0v-0.9h0.2c0.1,0,0.1,0,0.2,0c0,0,0,0,0.1,0
	c0,0,0,0.1,0,0.3v0.6c0,0,0,0,0,0h0.4c0,0,0,0,0.1,0l0.1-0.2c0.1,0.2,0.3,0.3,0.6,0.3h0.1c0,0,0,0,0.1,0l0.2-0.4v0.4c0,0,0,0,0,0
	h0.4c0,0,0,0,0.1,0c0,0,0.2-0.4,0.2-0.4h0c0,0,0,0,0,0h-0.2v-0.8l0.5,1.2c0,0,0.1,0,0.1,0h0.5c0,0,0,0,0.1,0L43.1,65.7
	C43.2,65.7,43.1,65.7,43.1,65.7L43.1,65.7z M40.9,66.6h-0.3c-0.1,0-0.2-0.1-0.2-0.2c0-0.1,0.1-0.2,0.2-0.2h0.1
	c0.1,0,0.2,0.1,0.2,0.2V66.6z"/>
</svg>
