<svg width="80" height="80" viewBox="0 0 80 80" fill="none" xmlns="http://www.w3.org/2000/svg">
<path fill-rule="evenodd" clip-rule="evenodd" d="M40 80C62.0914 80 80 62.0914 80 40C80 17.9086 62.0914 0 40 0C17.9086 0 0 17.9086 0 40C0 62.0914 17.9086 80 40 80Z" fill="#C2EAF7"/>
<mask id="mask0" maskType="alpha" maskUnits="userSpaceOnUse" x="0" y="0" width="80" height="80">
<path fill-rule="evenodd" clip-rule="evenodd" d="M40 80C62.0914 80 80 62.0914 80 40C80 17.9086 62.0914 0 40 0C17.9086 0 0 17.9086 0 40C0 62.0914 17.9086 80 40 80Z" fill="white"/>
        </mask>
<g mask="url(#mask0)">
<path fill-rule="evenodd" clip-rule="evenodd" d="M54.7888 38.0527C53.4644 42.335 50.8715 45.8897 47.5485 48.0651L47.7187 49.9721L47.7178 50.0497L45.9215 65.7693H34.5291L34.4818 65.4391L32.2794 50.0226L32.361 48.0945C29.0213 45.9248 26.4137 42.3643 25.0817 38.0706C25.0366 38.0748 24.9908 38.077 24.9445 38.077C24.0829 38.077 23.4004 37.3268 23.4004 36.418V31.2752C23.4004 30.666 23.7071 30.1278 24.1687 29.8391C24.889 20.2381 31.656 12.6924 39.9321 12.6924C48.186 12.6924 54.9393 20.1975 55.6903 29.7612C56.2294 30.0224 56.5989 30.6057 56.5989 31.2752V36.418C56.5989 37.3272 55.9173 38.077 55.0548 38.077C54.9639 38.077 54.8751 38.0687 54.7888 38.0527Z" fill="#E7E9E9"/>
<path fill-rule="evenodd" clip-rule="evenodd" d="M47.1474 48.597C47.0826 52.0299 43.9073 55.5518 39.9997 55.5518C36.0751 55.5518 32.8892 51.9992 32.8514 48.5522C30.8179 49.0658 27.7139 50.6145 25.1519 53.2028C22.6709 55.7092 20.6982 59.4766 20.6982 62.3992V79.9999H59.3012V62.3992C59.3012 59.4707 57.2859 55.6968 54.7591 53.1875C52.2323 50.6783 49.1939 49.1505 47.1474 48.597Z" fill="#254B6D"/>
<path fill-rule="evenodd" clip-rule="evenodd" d="M32.7231 48.6717C30.85 49.3492 27.7078 50.8302 25.3307 53.0792C18.3822 51.5387 15.2939 47.8779 15.2939 47.8779C15.2939 47.8779 21.6957 41.6563 21.6996 30.7748V30.7633C21.6996 18.0217 28.6037 9.23096 39.9782 9.23096C51.3543 9.23096 58.2583 18.0217 58.2583 30.7633H58.2993C58.2993 41.6525 64.7057 47.8779 64.7057 47.8779C64.7057 47.8779 61.6175 51.5387 54.6689 53.0771L54.6585 53.0792C52.3625 50.9982 49.0325 49.3931 47.2209 48.7146L47.223 48.7139L47.151 47.9073L47.1899 47.8404C50.6082 45.6619 53.2606 41.9917 54.5394 37.5569C54.6959 37.6437 54.8728 37.6925 55.0598 37.6925C55.7 37.6925 56.2181 37.1232 56.2181 36.4181V31.2754C56.2181 30.672 55.8388 30.1676 55.3283 30.0345C55.3278 30.0276 55.3274 30.0206 55.3269 30.0136C39.1652 31.8105 33.3434 20.7701 32.8656 20.7694C32.8656 20.7694 27.4983 24.6156 24.9331 29.1884C24.9331 29.1884 24.5421 30.0516 24.5402 30.0807C24.101 30.2616 23.7878 30.7277 23.7878 31.2754V36.4181C23.7878 37.1232 24.3072 37.6925 24.946 37.6925C25.0876 37.6925 25.2232 37.6647 25.3485 37.6137C26.6414 42.0506 29.3106 45.7168 32.745 47.881L32.7577 47.9073L32.7253 48.6717H32.7231Z" fill="#FFBD66"/>
<path fill-rule="evenodd" clip-rule="evenodd" d="M34.4795 33.7471C33.4819 33.8275 33.2026 32.2537 33.5032 31.2259C33.5598 31.0312 33.89 30.1443 34.4747 30.1443C35.0586 30.1443 35.3165 30.629 35.3523 30.7124C35.7819 31.7144 35.5709 33.6586 34.4795 33.7471" fill="#3E3832"/>
<path fill-rule="evenodd" clip-rule="evenodd" d="M46.0503 33.7471C47.0479 33.8275 47.3272 32.2537 47.0266 31.2259C46.97 31.0312 46.6398 30.1443 46.0551 30.1443C45.4712 30.1443 45.2133 30.629 45.1775 30.7124C44.7479 31.7144 44.9589 33.6586 46.0503 33.7471" fill="#3E3832"/>
<path d="M40.6342 35.298C41.2308 35.1962 41.6382 35.2601 41.7842 35.4586C42.3349 36.209 42.1588 37.0029 41.2139 37.6547C40.717 37.9972 40.0332 38.1178 39.6712 37.9401C39.4941 37.8533 39.2871 37.942 39.2088 38.1382C39.1304 38.3345 39.2104 38.564 39.3875 38.6508C39.9858 38.9444 40.906 38.7822 41.5841 38.3146C42.8682 37.4289 43.1621 36.1046 42.3278 34.9679C41.9747 34.4876 41.3498 34.3896 40.5276 34.5299C40.3362 34.5625 40.205 34.761 40.2345 34.9731C40.2639 35.1852 40.4429 35.3307 40.6342 35.298Z" fill="#3E3832"/>
<path d="M44.9487 40.4553C44.9136 40.5293 44.8333 40.671 44.7042 40.8575C44.4856 41.1733 44.2111 41.4899 43.8777 41.7852C42.8842 42.665 41.5911 43.1738 39.9453 43.1272C38.3406 43.0819 37.0533 42.581 36.044 41.7732C35.6734 41.4767 35.3675 41.1591 35.123 40.8425C34.9788 40.6558 34.8887 40.5143 34.8493 40.4405C34.7546 40.2631 34.5218 40.1901 34.3293 40.2774C34.1368 40.3647 34.0576 40.5793 34.1523 40.7567C34.2094 40.8636 34.3204 41.0381 34.4901 41.2578C34.7688 41.6186 35.1153 41.9783 35.5347 42.3139C36.674 43.2258 38.1301 43.7923 39.9215 43.843C41.787 43.8957 43.2784 43.3089 44.4159 42.3016C44.7963 41.9647 45.1089 41.6041 45.3591 41.2427C45.5112 41.0229 45.6101 40.8485 45.6606 40.7419C45.7465 40.5606 45.6567 40.3496 45.4601 40.2705C45.2635 40.1914 45.0345 40.2741 44.9487 40.4553Z" fill="#3E3832"/>
<path fill-rule="evenodd" clip-rule="evenodd" d="M31.303 9.05976C33.9056 7.69638 36.8496 6.9231 39.9712 6.9231C43.2815 6.9231 46.3942 7.78758 49.109 9.30842V9.60891C54.1005 12.5206 57.477 17.7458 57.6382 23.7421H58.7019C59.4565 23.7421 60.0738 24.3385 60.0738 25.0673V36.937C60.0738 37.6659 59.4565 38.2622 58.7019 38.2622L58.0498 38.2622C56.7901 42.3383 50.8499 45.443 43.6523 45.5437V45.9814C43.6523 46.499 43.2141 46.9231 42.6783 46.9231H37.2648C36.7281 46.9231 36.2899 46.499 36.2899 45.9814V43.9594C36.2899 43.4418 36.7281 43.0177 37.2648 43.0177H42.6783C43.2141 43.0177 43.6523 43.4418 43.6523 43.9594V44.6519C49.5126 44.0704 54.328 41.5829 56.3485 38.2622H55.7539C54.9993 38.2622 54.382 37.6659 54.382 36.937V25.0673C54.382 24.3385 54.9993 23.7421 55.7539 23.7421H56.4418C55.6953 18.9049 52.9557 14.744 49.109 12.1647V12.195C46.4281 10.4761 43.3065 9.48615 39.9712 9.48615C36.8286 9.48615 33.8758 10.3631 31.303 11.9011V11.8611C27.2102 14.4103 24.2769 18.7103 23.5004 23.7421H24.2467C25.0013 23.7421 25.6186 24.3385 25.6186 25.0673V36.937C25.6186 37.6659 25.0013 38.2622 24.2467 38.2622H21.2987C20.5441 38.2622 19.9268 37.6659 19.9268 36.937V25.0673C19.9268 24.3385 20.5441 23.7421 21.2987 23.7421H22.3039C22.4701 17.5594 26.0543 12.1966 31.303 9.3442V9.05976Z" fill="#3E3832"/>
<path fill-rule="evenodd" clip-rule="evenodd" d="M53.9563 72.4999H41.0429C40.4666 72.4999 40 72.0262 40 71.4411V64.3928C40 63.8077 40.4666 63.3333 41.0429 63.3333H53.9563C54.5326 63.3333 55 63.8077 55 64.3928V71.4411C55 72.0262 54.5326 72.4999 53.9563 72.4999" fill="white"/>
<path fill-rule="evenodd" clip-rule="evenodd" d="M48.276 64.7884H46.9378C46.8387 64.7884 46.7588 64.709 46.7588 64.6103V64.3859C46.7588 64.288 46.8387 64.2078 46.9378 64.2078H48.276C48.3751 64.2078 48.455 64.288 48.455 64.3859V64.6103C48.455 64.709 48.3751 64.7884 48.276 64.7884" fill="#3E3832"/>
<path fill-rule="evenodd" clip-rule="evenodd" d="M47.2197 64.5833H47.995V62.5H47.2197V64.5833Z" fill="#78706A"/>
<path fill-rule="evenodd" clip-rule="evenodd" d="M47.6585 70.8313C46.0486 70.8313 44.7432 69.526 44.7432 67.9159C44.7432 66.3056 46.0486 65 47.6585 65C49.2689 65 50.5745 66.3056 50.5745 67.9159C50.5745 69.526 49.2689 70.8313 47.6585 70.8313Z" fill="#C30000"/>
<path fill-rule="evenodd" clip-rule="evenodd" d="M43.333 69.189L43.9289 67.7141H44.5015L43.9064 69.189H43.333Z" fill="#C30000"/>
<path fill-rule="evenodd" clip-rule="evenodd" d="M50.6865 69.189L51.2748 67.7141H51.587L50.9987 69.189H50.6865Z" fill="#C30000"/>
<path fill-rule="evenodd" clip-rule="evenodd" d="M51.8438 69.189L52.432 67.7141H52.5977L52.0095 69.189H51.8438Z" fill="#C30000"/>
<path fill-rule="evenodd" clip-rule="evenodd" d="M50.145 67.7141H49.6267C49.6267 67.7141 49.591 67.7141 49.5784 67.7457L49.2915 68.6237L49.0049 67.7457C48.9923 67.7141 48.9564 67.7141 48.9564 67.7141H47.9598C47.9382 67.7141 47.9201 67.7321 47.9201 67.7536V68.0518C47.9201 67.8152 47.6684 67.7141 47.5211 67.7141C47.191 67.7141 46.9701 67.9315 46.9013 68.262C46.8976 68.0427 46.8793 67.9642 46.8203 67.8837C46.7931 67.8443 46.7539 67.8112 46.7112 67.7838C46.6233 67.7323 46.5444 67.7141 46.3747 67.7141H46.1755C46.1755 67.7141 46.1395 67.7141 46.1268 67.7457L45.9456 68.1948V67.7536C45.9456 67.7321 45.9276 67.7141 45.9061 67.7141H45.4452C45.4452 67.7141 45.4096 67.7141 45.3966 67.7457L45.2082 68.2127C45.2082 68.2127 45.1894 68.2594 45.2324 68.2594H45.4096V69.1494C45.4096 69.1715 45.427 69.189 45.4492 69.189H45.9061C45.9276 69.189 45.9456 69.1715 45.9456 69.1494V68.2594H46.1237C46.2259 68.2594 46.2475 68.2622 46.2873 68.2807C46.3112 68.2898 46.3328 68.3081 46.3446 68.3292C46.3687 68.3745 46.3747 68.429 46.3747 68.5896V69.1494C46.3747 69.1715 46.3925 69.189 46.4144 69.189H46.8523C46.8523 69.189 46.9018 69.189 46.9214 69.1401L47.0185 68.9002C47.1475 69.081 47.3599 69.189 47.6239 69.189H47.6816C47.6816 69.189 47.7314 69.189 47.7511 69.1401L47.9201 68.7215V69.1494C47.9201 69.1715 47.9382 69.189 47.9598 69.189H48.4069C48.4069 69.189 48.4562 69.189 48.476 69.1401C48.476 69.1401 48.6548 68.6962 48.6555 68.6928H48.6558C48.6626 68.6559 48.616 68.6559 48.616 68.6559H48.4564V67.8942L48.9584 69.1401C48.978 69.189 49.0275 69.189 49.0275 69.189H49.5556C49.5556 69.189 49.6053 69.189 49.6249 69.1401L50.1815 67.7619C50.2008 67.7141 50.145 67.7141 50.145 67.7141V67.7141ZM47.9201 68.6559H47.6199C47.5003 68.6559 47.4031 68.5591 47.4031 68.4394C47.4031 68.32 47.5003 68.2226 47.6199 68.2226H47.7038C47.8231 68.2226 47.9201 68.32 47.9201 68.4394V68.6559Z" fill="white"/>
        </g>
        </svg>
