<svg width="44" height="44" viewBox="0 0 43 43" fill="none" xmlns="http://www.w3.org/2000/svg">
    <path fill-rule="evenodd" clip-rule="evenodd" d="M21.5206 0L21.1434 0.00368008C15.4761 0.103042 10.1418 2.39389 6.12497 6.45487C2.07871 10.5453 -0.0943769 15.8998 0.00314537 21.534C0.20555 33.1944 9.34136 42.3283 20.8011 42.3283L21.1747 42.3247C33.0356 42.1204 42.521 32.4602 42.3168 20.7962C42.1144 9.13581 32.9785 0 21.5206 0ZM20.24 11.0403C20.24 10.5324 20.6522 10.1202 21.16 10.1202C21.666 10.1202 22.0801 10.5324 22.0801 11.0403V23.9206C22.0801 24.4284 21.666 24.8406 21.16 24.8406C20.6522 24.8406 20.24 24.4284 20.24 23.9206V11.0403ZM21.193 32.2007C21.182 32.2007 21.1709 32.2007 21.1599 32.2007C20.1571 32.2007 19.3364 31.3985 19.3199 30.3938C19.3015 29.3781 20.1111 28.5391 21.1268 28.5225C21.1378 28.5225 21.1489 28.5207 21.1599 28.5207C22.1627 28.5207 22.9815 29.3248 22.9999 30.3294C23.0183 31.3451 22.2069 32.1823 21.193 32.2007Z" fill="#0067C5"/>
</svg>
