<svg version="1.1" id="Layer_1" xmlns="http://www.w3.org/2000/svg" x="0px" y="0px"
	 viewBox="0 0 49 55.8" style="enable-background:new 0 0 49 55.8;" xml:space="preserve">
<style type="text/css">
	.st0{fill:#262626;}
	.st1{fill:#F1F1F1;}
	.st2{fill:#FF9100;}
	.st3{fill-rule:evenodd;clip-rule:evenodd;fill:#F1F1F1;}
	.st4{fill-rule:evenodd;clip-rule:evenodd;fill:#CCE2F0;}
	.st5{fill-rule:evenodd;clip-rule:evenodd;fill:#66A3C4;}
	.st6{fill-rule:evenodd;clip-rule:evenodd;fill:#262626;}
	.st7{fill:#EFA89D;}
	.st8{fill:#F9D2CC;}
	.st9{fill:#B5F1FF;}
	.st10{fill:#D8F9FF;}
	.st11{fill:#99DEAD;}
	.st12{fill:#CCF1D6;}
	.st13{fill-rule:evenodd;clip-rule:evenodd;fill:#007C2E;}
	.st14{fill:#4F4F4F;}
</style>
<path class="st0" d="M37,4h10c1.1,0,2,0.9,2,2v18c0,1.1-0.9,2-2,2H37c-1.1,0-2-0.9-2-2V6C35,4.9,35.9,4,37,4z"/>
<rect x="36.4" y="6.1" class="st1" width="11.2" height="4.8"/>
<rect x="43.4" y="8.8" class="st0" width="1.4" height="0.7"/>
<rect x="45.5" y="8.8" class="st0" width="1.4" height="0.7"/>
<path class="st1" d="M37.8,15.7c0.8,0,1.4-0.6,1.4-1.4s-0.6-1.4-1.4-1.4c-0.8,0-1.4,0.6-1.4,1.4S37,15.7,37.8,15.7z"/>
<path class="st1" d="M37.8,19.8c0.8,0,1.4-0.6,1.4-1.4s-0.6-1.4-1.4-1.4c-0.8,0-1.4,0.6-1.4,1.4S37,19.8,37.8,19.8z"/>
<path class="st1" d="M37.8,23.9c0.8,0,1.4-0.6,1.4-1.4s-0.6-1.4-1.4-1.4c-0.8,0-1.4,0.6-1.4,1.4S37,23.9,37.8,23.9z"/>
<path class="st1" d="M42,15.7c0.8,0,1.4-0.6,1.4-1.4s-0.6-1.4-1.4-1.4s-1.4,0.6-1.4,1.4S41.2,15.7,42,15.7z"/>
<path class="st1" d="M42,19.8c0.8,0,1.4-0.6,1.4-1.4s-0.6-1.4-1.4-1.4s-1.4,0.6-1.4,1.4S41.2,19.8,42,19.8z"/>
<path class="st2" d="M46.2,15.7c0.8,0,1.4-0.6,1.4-1.4s-0.6-1.4-1.4-1.4c-0.8,0-1.4,0.6-1.4,1.4S45.4,15.7,46.2,15.7z"/>
<path class="st1" d="M46.2,19.8c0.8,0,1.4-0.6,1.4-1.4s-0.6-1.4-1.4-1.4c-0.8,0-1.4,0.6-1.4,1.4S45.4,19.8,46.2,19.8z"/>
<path class="st1" d="M42,21.2h4.2c0.8,0,1.4,0.6,1.4,1.4l0,0c0,0.8-0.6,1.4-1.4,1.4H42c-0.8,0-1.4-0.6-1.4-1.4l0,0
	C40.6,21.8,41.2,21.2,42,21.2z"/>
<path class="st3" d="M44.5,32.2L44.5,32.2l-0.2,0.1v-1.7c0-0.6-0.5-1.2-1.2-1.2c-0.7,0-1.2,0.5-1.2,1.2v1.7h-0.2v-3.6
	c0-0.6-0.5-1.2-1.2-1.2c-0.7,0-1.2,0.5-1.2,1.2v3.6h-0.2v-8.1c0-0.6-0.5-1.2-1.2-1.2c-0.7,0-1.2,0.5-1.2,1.2v11.1
	c0,0.2,0,0.3,0.1,0.4L36.7,36c0,0-0.3,0.1-0.6-0.3c-0.3-0.4-1.2-2.5-1.2-2.5s-1.2-2.4-2.2-2c-1.1,0.4-0.6,2-0.6,2s0.5,2.5,0.9,3.7
	c0.4,1.5,1.3,3.1,2,4.2c0.7,1.1,2.1,2.8,2.6,2.8l0.1,2h7.8v-1.4c0-0.3,0.4-0.6,0.6-0.7c0.4-0.1,0.8-0.5,0.8-0.9V32.2
	c0-0.6-0.5-1-1.2-1C45,31.2,44.5,31.6,44.5,32.2z"/>
<path class="st4" d="M37,55.8h10.5v-8.2H37V55.8z"/>
<path class="st5" d="M37,48.7h10.5v-3.3H37V48.7z"/>
<path class="st6" d="M45.2,46.5c-0.3,0-0.6,0.2-0.6,0.5c0,0.3,0.2,0.5,0.6,0.5c0.3,0,0.6-0.2,0.6-0.5C45.8,46.8,45.5,46.5,45.2,46.5
	z"/>
<path class="st0" d="M12,7.4l17-4v13.3l-16.4,3.8c-0.7,0.2-1.4-0.3-1.6-1.1c0-0.1,0-0.2,0-0.3V8.8C11,8.1,11.4,7.5,12,7.4z"/>
<path class="st1" d="M23,4.1c1.1,0,2-0.9,2-2.1S24.1,0,23,0s-2,0.9-2,2.1S21.9,4.1,23,4.1z"/>
<path class="st1" d="M28.3,5.5c1.1,0,2-0.9,2-2.1s-0.9-2.1-2-2.1c-1.1,0-2,0.9-2,2.1S27.2,5.5,28.3,5.5z"/>
<rect x="15" y="3.4" class="st7" width="16" height="8.9"/>
<rect x="27.7" y="3.4" class="st8" width="2" height="8.9"/>
<rect x="14.3" y="4.1" class="st9" width="16" height="8.9"/>
<rect x="27" y="4.1" class="st10" width="2" height="8.9"/>
<rect x="13.7" y="4.8" class="st11" width="16" height="8.9"/>
<rect x="26.3" y="4.8" class="st12" width="2" height="8.9"/>
<path class="st13" d="M15.7,8.9V6.2h0.4l1.6,2.1V6.2H18v2.7h-0.4L16,6.8v2.1H15.7z M18.5,7.6c0-0.4,0.1-0.8,0.4-1
	c0.3-0.2,0.6-0.4,1-0.4c0.3,0,0.5,0.1,0.7,0.2c0.2,0.1,0.4,0.3,0.5,0.5c0.1,0.2,0.2,0.4,0.2,0.7c0,0.3-0.1,0.5-0.2,0.7
	c-0.1,0.2-0.3,0.4-0.5,0.5c-0.2,0.1-0.5,0.2-0.7,0.2c-0.3,0-0.5-0.1-0.7-0.2c-0.2-0.1-0.4-0.3-0.5-0.5C18.6,8.1,18.5,7.8,18.5,7.6z
	 M19,7.6c0,0.3,0.1,0.6,0.3,0.8c0.2,0.2,0.4,0.3,0.7,0.3c0.3,0,0.5-0.1,0.7-0.3S21,7.9,21,7.6c0-0.2,0-0.4-0.1-0.6
	c-0.1-0.2-0.2-0.3-0.4-0.4c-0.2-0.1-0.3-0.1-0.5-0.1c-0.3,0-0.5,0.1-0.7,0.3C19.1,6.9,19,7.2,19,7.6z M21.9,8.9V6.2h0.4v1.3l1.5-1.3
	h0.5L23,7.3l1.3,1.6h-0.5l-1.1-1.3L22.3,8v0.9H21.9z"/>
<path class="st14" d="M12.4,8.9H31V22H12.4c-0.8,0-1.4-0.6-1.4-1.4V10.3C11,9.6,11.6,8.9,12.4,8.9z"/>
<path class="st1" d="M27.7,14.4h1.9c0.8,0,1.4,0.6,1.4,1.4l0,0c0,0.8-0.6,1.4-1.4,1.4h-1.9c-0.8,0-1.4-0.6-1.4-1.4l0,0
	C26.3,15.1,26.9,14.4,27.7,14.4z"/>
<path class="st3" d="M15.3,22v5.3v0.5c0,0,0.1,0.4,0.1,0.9l1.6-2.3c0.5-0.7,1.5-0.9,2.2-0.4l0.1,0.1c0.7,0.5,0.9,1.5,0.4,2.2
	l-4.5,6.2c-0.1,0.2-0.2,0.4-0.3,0.6c-0.2,0.5-0.7,1.2-1.1,1.8c-0.5,0.7-1,1.4-1,1.7c-0.1,0.6-0.2,1.2-0.2,1.2l-7.4-2.6l2.4-8.2
	c0-0.1,0.1-0.2,0.2-0.3c0.9-0.9,5.6-5.8,6.4-6.6c0.1-0.1,0.2-0.1,0.3-0.1H15.3z"/>
<path class="st4" d="M3.8,37.2l9.4,3.4l-2.5,7.1H0L3.8,37.2z"/>
<path class="st5" d="M3.7,36.7l10,3.4L12.7,43l-10-3.4L3.7,36.7z"/>
<path class="st6" d="M4.3,38.6c0.1-0.3,0.4-0.4,0.7-0.3c0.3,0.1,0.4,0.4,0.3,0.7c-0.1,0.3-0.4,0.4-0.7,0.3
	C4.3,39.2,4.2,38.9,4.3,38.6z"/>
</svg>
