<svg width="45" height="44" viewBox="0 0 45 44" fill="none" xmlns="http://www.w3.org/2000/svg">
    <path fill-rule="evenodd" clip-rule="evenodd" d="M38.64 7.35992C38.64 10.9111 35.7512 13.7999 32.2 13.7999C28.6488 13.7999 25.76 10.9111 25.76 7.35992C25.76 3.80872 28.6488 0.919922 32.2 0.919922C35.7512 0.919922 38.64 3.80872 38.64 7.35992ZM36.8 7.35992C36.8 4.8244 34.7374 2.75992 32.2 2.75992C29.6626 2.75992 27.6 4.8244 27.6 7.35992C27.6 9.89544 29.6626 11.9599 32.2 11.9599C34.7374 11.9599 36.8 9.89544 36.8 7.35992ZM43.8914 32.4686C41.7312 30.3102 39.871 29.7104 37.4311 30.4059L30.6728 32.6489C30.4575 31.4474 29.4124 30.3599 27.6 30.3599H22.4517C21.0846 29.0701 17.9823 26.6799 13.8 26.6799H9.2V25.7599C9.2 25.2521 8.78784 24.8399 8.28 24.8399H0.92C0.41216 24.8399 0 25.2521 0 25.7599V40.5572C0 41.065 0.41216 41.4772 0.92 41.4772H8.28C8.78784 41.4772 9.2 41.065 9.2 40.5572V38.9987C10.7072 39.5077 12.0538 39.9748 13.2551 40.3914L13.2552 40.3915L13.351 40.4247C18.1792 42.101 20.873 43.0191 23.322 43.0191C26.3083 43.0191 28.9303 41.652 34.6159 38.6289L34.6241 38.6245L34.6244 38.6244C36.98 37.3721 39.9123 35.8133 43.6522 33.9424C43.9171 33.8099 44.1011 33.5597 44.149 33.2671C44.1968 32.9746 44.0993 32.6783 43.8914 32.4686ZM7.36 39.6372H1.84V26.6799H7.36V39.6372ZM33.7418 37.0091L33.7511 37.0042C35.8579 35.8836 38.4247 34.5202 41.6171 32.9065C40.2334 31.8393 39.1828 31.8172 37.9739 32.165L30.1318 34.7686C29.6185 35.4162 28.7758 35.8799 27.6 35.8799H17.48C16.9722 35.8799 16.56 35.4678 16.56 34.9599C16.56 34.4521 16.9722 34.0399 17.48 34.0399H27.6C28.5458 34.0399 28.8788 33.5431 28.8788 33.1199C28.8788 32.6967 28.5458 32.1999 27.6 32.1999H22.08C21.8353 32.1999 21.6016 32.1024 21.4286 31.9313C20.4038 30.9046 17.607 28.5199 13.8 28.5199H9.2V37.0594C10.9958 37.661 12.5727 38.2075 13.9546 38.6878C24.0198 42.1808 24.0212 42.1801 33.7418 37.0091ZM23 26.6799C26.5512 26.6799 29.44 23.7911 29.44 20.2399C29.44 16.6887 26.5512 13.7999 23 13.7999C19.4488 13.7999 16.56 16.6887 16.56 20.2399C16.56 23.7911 19.4488 26.6799 23 26.6799ZM23 15.6399C25.5374 15.6399 27.6 17.7044 27.6 20.2399C27.6 22.7754 25.5374 24.8399 23 24.8399C20.4626 24.8399 18.4 22.7754 18.4 20.2399C18.4 17.7044 20.4626 15.6399 23 15.6399ZM23 22.9999C23.5078 22.9999 23.92 22.5878 23.92 22.0799V18.3999C23.92 17.8921 23.5078 17.4799 23 17.4799C22.4922 17.4799 22.08 17.8921 22.08 18.3999V22.0799C22.08 22.5878 22.4922 22.9999 23 22.9999ZM33.12 9.19992C33.12 9.70776 32.7078 10.1199 32.2 10.1199C31.6922 10.1199 31.28 9.70776 31.28 9.19992V5.51992C31.28 5.01208 31.6922 4.59992 32.2 4.59992C32.7078 4.59992 33.12 5.01208 33.12 5.51992V9.19992Z" fill="#3E3832"/>
</svg>
