<svg width="52" height="52" viewBox="0 0 52 52" fill="none" xmlns="http://www.w3.org/2000/svg">
<path fill-rule="evenodd" clip-rule="evenodd" d="M9.75 28.1667H1.08333C0.485333 28.1667 0 28.6805 0 29.3137V46.5196C0 47.1528 0.485333 47.6667 1.08333 47.6667H9.75C10.3458 47.6667 10.8333 47.1528 10.8333 46.5196V29.3137C10.8333 28.6805 10.3458 28.1667 9.75 28.1667Z" fill="#66A5F4"/>
<path d="M35.75 15.1667C39.9317 15.1667 43.3333 11.765 43.3333 7.58333C43.3333 3.3995 39.9317 0 35.75 0C31.5683 0 28.1667 3.3995 28.1667 7.58333C28.1667 11.765 31.5683 15.1667 35.75 15.1667Z" fill="#FFAA33"/>
<path d="M34.6667 5.41668C34.6667 4.81868 35.152 4.33334 35.75 4.33334C36.3458 4.33334 36.8333 4.81868 36.8333 5.41668V9.75001C36.8333 10.348 36.3458 10.8333 35.75 10.8333C35.152 10.8333 34.6667 10.348 34.6667 9.75001V5.41668Z" fill="#A86400"/>
<path d="M22.75 28.1667C26.9317 28.1667 30.3333 24.765 30.3333 20.5833C30.3333 16.3995 26.9317 13 22.75 13C18.5683 13 15.1667 16.3995 15.1667 20.5833C15.1667 24.765 18.5683 28.1667 22.75 28.1667Z" fill="#FFAA33"/>
<path d="M21.6667 18.4167C21.6667 17.8187 22.152 17.3333 22.75 17.3333C23.3458 17.3333 23.8333 17.8187 23.8333 18.4167V22.75C23.8333 23.348 23.3458 23.8333 22.75 23.8333C22.152 23.8333 21.6667 23.348 21.6667 22.75V18.4167Z" fill="#A86400"/>
<path fill-rule="evenodd" clip-rule="evenodd" d="M23.0549 39.5467C22.8919 39.8052 22.9693 40.1469 23.2278 40.3099C23.2519 40.3252 23.2772 40.3385 23.3034 40.3498L30.3333 43.3879L43.3333 38.7154C46.2816 37.8762 49.0612 36.7182 51.6735 39.3154C51.9249 39.5678 52.0406 39.9265 51.9872 40.2785C51.9294 40.6328 51.7068 40.9339 51.3864 41.0933C45.2384 44.151 41.1063 46.5002 38.089 48.2161C33.5297 50.8088 31.3469 52 28.7946 52C26.654 52 24.2531 51.1609 19.9631 49.6088C17.7824 48.8183 15.0678 47.8375 11.5943 46.6839C11.1404 46.5334 10.8333 46.1105 10.8333 45.6344V31.4319C10.8333 30.8255 11.3857 30.3333 12.0662 30.3333H15.7649C19.1175 30.3333 21.6918 31.412 23.4677 32.5H33.5833C35.3783 32.5 36.8333 33.9551 36.8333 35.75C36.8333 37.5449 35.3783 39 33.5833 39H24.046C23.6437 39 23.2695 39.2064 23.0549 39.5467Z" fill="#FFD799"/>
</svg>
