<svg width="47" height="47" viewBox="0 0 47 47" fill="none" xmlns="http://www.w3.org/2000/svg">
<path fill-rule="evenodd" clip-rule="evenodd" d="M1.95833 1.95833H21.5417V10.7708C21.5417 11.3113 21.9803 11.75 22.5208 11.75H31.3333V18.6042H33.2917V10.7748V10.7728V10.7708C33.2917 10.6651 33.2623 10.5711 33.2329 10.4771C33.2294 10.4656 33.2278 10.4538 33.2263 10.442C33.2245 10.4277 33.2226 10.4136 33.2172 10.4007C33.1663 10.2754 33.088 10.1638 32.992 10.0698L23.2141 0.289833C23.124 0.19975 23.0163 0.127292 22.8968 0.0783333C22.7793 0.0274167 22.652 0 22.5208 0H0.979167C0.438667 0 0 0.438667 0 0.979167V42.1042C0 42.6447 0.438667 43.0833 0.979167 43.0833H20.5625V41.125H1.95833V1.95833ZM23.5 3.34288L29.9468 9.79167H23.5V3.34288ZM34.2708 21.5417C27.2522 21.5417 21.5417 27.2522 21.5417 34.2708C21.5417 41.2895 27.2522 47 34.2708 47C41.2895 47 47 41.2895 47 34.2708C47 27.2522 41.2895 21.5417 34.2708 21.5417ZM34.2708 45.0417C28.3312 45.0417 23.5 40.2085 23.5 34.2708C23.5 28.3332 28.3312 23.5 34.2708 23.5C40.2105 23.5 45.0417 28.3332 45.0417 34.2708C45.0417 40.2085 40.2105 45.0417 34.2708 45.0417Z" fill="#3E3832"/>
<path fill-rule="evenodd" clip-rule="evenodd" d="M34.2986 37.5229C35.0158 37.5229 35.5972 38.1044 35.5972 38.8216C35.5972 39.5388 35.0158 40.1202 34.2986 40.1202C33.5814 40.1202 33 39.5388 33 38.8216C33 38.1044 33.5814 37.5229 34.2986 37.5229Z" fill="#3E3832"/>
<path fill-rule="evenodd" clip-rule="evenodd" d="M35.1641 28V35.7917H33.4326V28H35.1641Z" fill="#3E3832"/>
</svg>
