<svg width="42" height="42" viewBox="0 0 42 42" fill="none" xmlns="http://www.w3.org/2000/svg">
<path fill-rule="evenodd" clip-rule="evenodd" d="M31.773 16.9242L38.9253 24.0782C40.908 26.061 42 28.6965 42 31.5017C42 34.307 40.908 36.9442 38.9253 38.9252C36.9408 40.908 34.3035 42 31.4983 42C28.693 42 26.0575 40.9097 24.0765 38.927L3.0765 17.927C1.09375 15.9442 0 13.3105 0 10.5052C0 7.69821 1.092 5.06271 3.0765 3.07646C5.061 1.09371 7.6965 0.00170898 10.5017 0.00170898C13.307 0.00170898 15.9425 1.09371 17.9253 3.07471L24.0853 9.23471C24.0863 9.23576 24.0875 9.23665 24.0888 9.23747L24.0914 9.23908C24.0936 9.2404 24.0957 9.24171 24.0975 9.24346L31.773 16.9242ZM18.5273 30.9032L30.8997 18.5272L29.9932 17.6207L23.4762 11.102L11.102 23.4762L18.5273 30.9032ZM1.75 10.5035C1.75 8.16546 2.66 5.96746 4.31375 4.31371C5.9675 2.66171 8.16375 1.75171 10.5017 1.75171C12.838 1.75171 15.036 2.66171 16.688 4.31371L22.239 9.86471L9.863 22.2407L4.31375 16.6897C2.66175 15.0377 1.75 12.8415 1.75 10.5035ZM31.4982 40.25C33.8345 40.25 36.0342 39.34 37.688 37.688C39.34 36.0377 40.25 33.8415 40.25 31.5017C40.25 29.1637 39.34 26.9657 37.688 25.3155L32.137 19.7645L19.7645 32.1405L25.3137 37.6897C26.9657 39.34 29.162 40.25 31.4982 40.25ZM7.39025 13.9405C7.16625 13.9405 6.94225 14.0262 6.77075 14.196C6.4295 14.5372 6.4295 15.092 6.77075 15.4332C6.94225 15.6047 7.16625 15.6887 7.39025 15.6887C7.61425 15.6887 7.83825 15.603 8.00975 15.4332C8.35275 15.092 8.35275 14.5372 8.00975 14.196C7.83825 14.0262 7.61425 13.9405 7.39025 13.9405ZM10.4825 11.7215C10.1413 11.3802 10.1413 10.822 10.4825 10.4842C10.654 10.3127 10.878 10.227 11.102 10.227C11.326 10.227 11.55 10.3127 11.7198 10.4842C12.061 10.822 12.061 11.3802 11.7198 11.7215C11.55 11.893 11.326 11.977 11.102 11.977C10.878 11.977 10.654 11.893 10.4825 11.7215ZM7.39025 11.1037C7.73325 10.759 7.73325 10.2042 7.39025 9.86296C7.21875 9.69146 6.99475 9.60746 6.77075 9.60746C6.54675 9.60746 6.32275 9.69146 6.153 9.86296C5.81175 10.2042 5.81175 10.759 6.153 11.1037C6.3245 11.2752 6.5485 11.3592 6.7725 11.3592C6.9965 11.3592 7.21875 11.2735 7.39025 11.1037ZM11.102 7.38846C10.9305 7.56171 10.7065 7.64746 10.4825 7.64746C10.2585 7.64746 10.0345 7.56171 9.86475 7.38846C9.5235 7.04896 9.5235 6.49421 9.86475 6.15296C10.0345 5.98321 10.2585 5.89746 10.4825 5.89746C10.7065 5.89746 10.9305 5.98321 11.102 6.15296C11.4432 6.49421 11.4432 7.04896 11.102 7.38846ZM11.102 14.8155C10.7607 15.1567 10.7607 15.7115 11.102 16.0527C11.2735 16.2242 11.4975 16.3082 11.7215 16.3082C11.9455 16.3082 12.1695 16.2225 12.341 16.0527C12.6823 15.7115 12.6823 15.1567 12.341 14.8155C12.1678 14.644 11.9438 14.5547 11.7198 14.5547C11.4958 14.5547 11.2718 14.644 11.102 14.8155ZM14.8138 12.3375C14.4725 11.9962 14.4725 11.445 14.8138 11.1037C14.9853 10.9322 15.2075 10.8465 15.4315 10.8465C15.6555 10.8465 15.8795 10.9322 16.051 11.1037C16.394 11.445 16.394 11.998 16.051 12.3375C15.8795 12.5107 15.6573 12.5965 15.4333 12.5965C15.2093 12.5965 14.9853 12.5125 14.8138 12.3375ZM14.8137 8.26696C15.0378 8.26696 15.2618 8.18121 15.4333 8.01146C15.7745 7.67021 15.7745 7.11546 15.4333 6.77071C15.2618 6.59921 15.0378 6.51346 14.8137 6.51346C14.5897 6.51346 14.3657 6.59921 14.1942 6.76896C13.853 7.11371 13.853 7.66846 14.1942 8.00971C14.3657 8.18121 14.5897 8.26696 14.8137 8.26696ZM26.5685 33.9955C26.74 33.824 26.964 33.74 27.188 33.74C27.412 33.74 27.636 33.824 27.8075 33.9955C28.1488 34.335 28.1488 34.8897 27.8075 35.2345C27.636 35.406 27.412 35.4882 27.188 35.4882C26.964 35.4882 26.74 35.406 26.5685 35.2345C26.2273 34.8897 26.2273 34.335 26.5685 33.9955ZM31.5193 31.521C31.8605 31.178 31.8605 30.6232 31.5193 30.282C31.3477 30.1122 31.1238 30.0265 30.8997 30.0265C30.6757 30.0265 30.4517 30.114 30.2802 30.282C29.9372 30.6232 29.9372 31.178 30.2802 31.521C30.4517 31.6925 30.6757 31.7765 30.8997 31.7765C31.1238 31.7765 31.3477 31.6907 31.5193 31.521ZM30.8997 34.6115C31.0712 34.4417 31.2952 34.356 31.5192 34.356C31.7432 34.356 31.9672 34.4417 32.1387 34.6115C32.4818 34.9562 32.4818 35.511 32.1387 35.8487C31.9672 36.0185 31.7432 36.1042 31.5192 36.1042C31.2952 36.1042 31.0712 36.0202 30.8997 35.8487C30.5585 35.511 30.5585 34.9562 30.8997 34.6115ZM35.2327 30.646C35.0088 30.646 34.7847 30.7317 34.6133 30.9015C34.272 31.241 34.272 31.7957 34.6133 32.1405C34.7847 32.3102 35.0088 32.396 35.2327 32.396C35.4567 32.396 35.6808 32.3102 35.8522 32.1405C36.1935 31.7957 36.1935 31.241 35.8522 30.9015C35.6808 30.7317 35.4567 30.646 35.2327 30.646ZM27.188 29.6625C27.5293 30.0037 27.5293 30.5602 27.188 30.9015C27.0165 31.0712 26.7925 31.157 26.5685 31.157C26.3445 31.157 26.1205 31.0712 25.949 30.9015C25.6077 30.5602 25.6077 30.0037 25.949 29.6625C26.1205 29.4927 26.3445 29.407 26.5685 29.407C26.7925 29.407 27.0165 29.491 27.188 29.6625ZM30.8997 27.188C31.2427 26.8467 31.2427 26.2937 30.8997 25.9507C30.7282 25.7792 30.5042 25.6952 30.2802 25.6952C30.0562 25.6952 29.8322 25.781 29.6607 25.9507C29.3195 26.2937 29.3195 26.8467 29.6607 27.188C29.8322 27.3595 30.0562 27.4435 30.2802 27.4435C30.5042 27.4435 30.73 27.3595 30.8997 27.188ZM35.231 26.5702C35.574 26.9115 35.574 27.4662 35.231 27.8075C35.0595 27.9772 34.8372 28.063 34.6133 28.063C34.3893 28.063 34.1652 27.979 33.9938 27.8075C33.6525 27.4662 33.6525 26.9115 33.9938 26.5702C34.1652 26.4005 34.3893 26.3147 34.6133 26.3147C34.8372 26.3147 35.0595 26.3987 35.231 26.5702Z" fill="#0067C5"/>
</svg>
