<svg width="75" height="75" viewBox="0 0 75 75" fill="none" xmlns="http://www.w3.org/2000/svg">
    <path fill-rule="evenodd" clip-rule="evenodd"
          d="M37.5 75C58.2107 75 75 58.2107 75 37.5C75 16.7893 58.2107 0 37.5 0C16.7893 0 0 16.7893 0 37.5C0 58.2107 16.7893 75 37.5 75Z"
          fill="#B5F1FF"/>
    <mask id="mask0_384_6478" style="mask-type:alpha" maskUnits="userSpaceOnUse" x="0" y="0" width="75" height="75">
        <path fill-rule="evenodd" clip-rule="evenodd"
              d="M37.5 75C58.2107 75 75 58.2107 75 37.5C75 16.7893 58.2107 0 37.5 0C16.7893 0 0 16.7893 0 37.5C0 58.2107 16.7893 75 37.5 75Z"
              fill="white"/>
    </mask>
    <g mask="url(#mask0_384_6478)">
        <path fill-rule="evenodd" clip-rule="evenodd"
              d="M51.7761 36.7178C50.5351 40.9213 48.0055 44.4148 44.7417 46.5332L44.905 48.3469L44.9041 48.4207L43.1809 63.3714H32.2522L32.2068 63.0573L30.094 48.3949L30.1723 46.5611C26.908 44.4586 24.3729 40.9829 23.1182 36.7956C22.8918 36.9462 22.6234 37.0336 22.3338 37.0336C21.5073 37.0336 20.8525 36.3201 20.8525 35.4557V30.5645C20.8525 29.7012 21.5057 28.9878 22.3306 28.986C23.1055 19.9561 29.5578 12.8906 37.4353 12.8906C45.3146 12.8906 51.7684 19.9591 52.5412 28.9914C52.5824 28.9878 52.6241 28.9859 52.6663 28.9859C53.4937 28.9859 54.1476 29.6997 54.1476 30.5645V35.4557C54.1476 36.3205 53.4937 37.0336 52.6663 37.0336C52.3304 37.0336 52.0229 36.9157 51.7761 36.7178Z"
              fill="#F1F1F1"/>
        <path fill-rule="evenodd" clip-rule="evenodd"
              d="M44.737 47.0215C44.6714 50.4643 41.4564 53.9964 37.5 53.9964C33.5264 53.9964 30.3006 50.4335 30.2623 46.9765C28.2034 47.4915 25.0606 49.0448 22.4666 51.6406C19.9546 54.1543 17.9573 57.9327 17.9573 60.8638V78.5156H57.0428V60.8638C57.0428 57.9267 55.0023 54.1419 52.4439 51.6253C49.8855 49.1087 46.8091 47.5765 44.737 47.0215Z"
              fill="#005077"/>
        <path fill-rule="evenodd" clip-rule="evenodd"
              d="M22.3004 30.1474C22.8139 30.8668 23.0244 30.9728 23.0244 30.9V29.428C22.9178 25.4253 24.1368 23.888 25.313 22.4762C25.313 22.4762 24.5982 25.5515 25.0954 24.9119C27.9106 21.3008 40.9493 23.7741 43.6543 19.1138C43.9946 21.6794 40.5814 22.4531 40.5814 22.4531C43.3024 22.9542 45.6599 21.8892 46.2987 20.6244C46.509 21.6556 45.8629 22.3399 44.9174 23.0451C48.2619 22.43 48.316 20.1918 48.316 20.1918C48.792 23.1605 51.7314 22.8941 52.2205 26.8805C52.7096 30.1474 52.2205 30.8819 52.7096 30.8819C52.7096 30.8819 53.4336 30.1474 53.4288 27.9888C53.4288 15.9653 48.316 9.28486 37.5051 9.28486C27.4266 9.28486 21.5815 15.9653 21.5815 26.6533C21.5763 28.7619 22.3004 30.1474 22.3004 30.1474Z"
              fill="#FFAA33"/>
        <path fill-rule="evenodd" clip-rule="evenodd"
              d="M32.0765 31.8539C31.0789 31.9383 30.7997 30.2858 31.1003 29.2066C31.1568 29.0021 31.4871 28.0709 32.0717 28.0709C32.6557 28.0709 32.9135 28.5799 32.9494 28.6674C33.3789 29.7195 33.1679 31.7609 32.0765 31.8539Z"
              fill="#262626"/>
        <path fill-rule="evenodd" clip-rule="evenodd"
              d="M43.6472 31.8539C44.6449 31.9383 44.9241 30.2858 44.6235 29.2066C44.567 29.0021 44.2367 28.0709 43.6521 28.0709C43.0681 28.0709 42.8102 28.5799 42.7744 28.6674C42.3449 29.7195 42.5558 31.7609 43.6472 31.8539Z"
              fill="#262626"/>
        <path
            d="M38.2316 33.4824C38.8282 33.3755 39.2357 33.4426 39.3816 33.651C39.9323 34.4389 39.7562 35.2725 38.8113 35.9568C38.3145 36.3165 37.6306 36.4431 37.2686 36.2566C37.0916 36.1654 36.8845 36.2585 36.8062 36.4646C36.7279 36.6706 36.8079 36.9116 36.9849 37.0028C37.5832 37.311 38.5034 37.1407 39.1815 36.6498C40.4656 35.7198 40.7595 34.3293 39.9252 33.1358C39.5722 32.6314 38.9472 32.5285 38.125 32.6758C37.9336 32.7101 37.8024 32.9184 37.8319 33.1412C37.8613 33.3639 38.0403 33.5166 38.2316 33.4824Z"
            fill="#262626"/>
        <path
            d="M42.5458 38.8975C42.5108 38.9752 42.4305 39.1239 42.3013 39.3198C42.0827 39.6514 41.8082 39.9838 41.4748 40.2938C40.4814 41.2176 39.1883 41.7518 37.5425 41.703C35.9378 41.6553 34.6505 41.1294 33.6412 40.2813C33.2706 39.9699 32.9647 39.6364 32.7201 39.304C32.5759 39.108 32.4859 38.9594 32.4465 38.8819C32.3518 38.6956 32.119 38.6189 31.9265 38.7106C31.734 38.8023 31.6548 39.0276 31.7495 39.2139C31.8065 39.3261 31.9176 39.5094 32.0873 39.7401C32.366 40.1189 32.7125 40.4966 33.1319 40.849C34.2712 41.8064 35.7273 42.4013 37.5187 42.4545C39.3842 42.5099 40.8756 41.8938 42.0131 40.836C42.3934 40.4823 42.7061 40.1037 42.9562 39.7242C43.1084 39.4934 43.2073 39.3103 43.2578 39.1983C43.3436 39.008 43.2538 38.7864 43.0572 38.7034C42.8606 38.6203 42.6317 38.7072 42.5458 38.8975Z"
            fill="#262626"/>
        <path fill-rule="evenodd" clip-rule="evenodd"
              d="M31.7095 40.449C31.7095 39.1689 34.3019 38.8522 37.5 38.8522C40.698 38.8522 43.2904 39.1689 43.2904 40.449C43.2904 41.7291 41.689 44.3726 37.5 44.3726C33.3109 44.3726 31.7095 41.7291 31.7095 40.449ZM37.3267 37.3753C35.0857 37.3753 33.895 38.0189 30.6214 38.9211C25.9692 40.2033 23.82 36.6116 23.06 33.0829C22.624 31.0583 22.3 31.9099 22.3 31.9099C22.3 45.7413 31.5732 50.4113 37.6233 50.4113C43.769 50.4113 52.6999 45.9189 52.6999 31.6406C52.6999 31.3229 52.0847 31.4793 51.9761 31.9099C51.3374 34.4404 52.0581 40.881 43.8192 38.9211C40.935 37.7096 39.5677 37.3753 37.3267 37.3753Z"
              fill="#FFA733"/>
        <path fill-rule="evenodd" clip-rule="evenodd"
              d="M29.3463 9.12451C31.7862 7.84635 34.5462 7.12139 37.4727 7.12139C40.5761 7.12139 43.4942 7.93185 46.0394 9.35764V9.63934C50.7189 12.3691 53.8844 17.2676 54.0355 22.8892H55.0327C55.7401 22.8892 56.3189 23.4483 56.3189 24.1316V35.2595C56.3189 35.9428 55.7401 36.5018 55.0327 36.5018H54.4214C53.2404 40.3231 47.6715 43.2338 40.9237 43.3282V43.7386C40.9237 44.2238 40.5129 44.6214 40.0106 44.6214H34.9355C34.4323 44.6214 34.0215 44.2238 34.0215 43.7386V41.8429C34.0215 41.3576 34.4323 40.9601 34.9355 40.9601H40.0106C40.5129 40.9601 40.9237 41.3576 40.9237 41.8429V42.4921C46.4177 41.947 50.9322 39.615 52.8264 36.5018H52.269C51.5616 36.5018 50.9828 35.9428 50.9828 35.2595V24.1316C50.9828 23.4483 51.5616 22.8892 52.269 22.8892H52.9139C52.214 18.3543 49.6456 14.4535 46.0394 12.0354V12.0638C43.526 10.4524 40.5996 9.52426 37.4727 9.52426C34.5266 9.52426 31.7582 10.3464 29.3463 11.7883V11.7508C25.5092 14.1406 22.7593 18.1719 22.0313 22.8892H22.731C23.4384 22.8892 24.0172 23.4483 24.0172 24.1316V35.2595C24.0172 35.9428 23.4384 36.5018 22.731 36.5018H19.9672C19.2598 36.5018 18.681 35.9428 18.681 35.2595V24.1316C18.681 23.4483 19.2598 22.8892 19.9672 22.8892H20.9096C21.0654 17.0929 24.4256 12.0653 29.3463 9.39118V9.12451Z"
              fill="#262626"/>
        <path fill-rule="evenodd" clip-rule="evenodd"
              d="M50.5841 67.9688H38.4777C37.9374 67.9688 37.5 67.5247 37.5 66.9761V60.3683C37.5 59.8198 37.9374 59.375 38.4777 59.375H50.5841C51.1243 59.375 51.5625 59.8198 51.5625 60.3683V66.9761C51.5625 67.5247 51.1243 67.9688 50.5841 67.9688Z"
              fill="white"/>
        <path fill-rule="evenodd" clip-rule="evenodd"
              d="M45.2587 60.7391H44.0041C43.9112 60.7391 43.8363 60.6646 43.8363 60.5721V60.3617C43.8363 60.2699 43.9112 60.1947 44.0041 60.1947H45.2587C45.3516 60.1947 45.4265 60.2699 45.4265 60.3617V60.5721C45.4265 60.6646 45.3516 60.7391 45.2587 60.7391Z"
              fill="#262626"/>
        <path fill-rule="evenodd" clip-rule="evenodd" d="M44.2682 60.5469H44.995V58.5938H44.2682V60.5469Z"
              fill="#6A6A6A"/>
        <path fill-rule="evenodd" clip-rule="evenodd"
              d="M44.68 66.4044C43.1707 66.4044 41.9469 65.1806 41.9469 63.6711C41.9469 62.1615 43.1707 60.9375 44.68 60.9375C46.1898 60.9375 47.4137 62.1615 47.4137 63.6711C47.4137 65.1806 46.1898 66.4044 44.68 66.4044Z"
              fill="#C30000"/>
        <path fill-rule="evenodd" clip-rule="evenodd"
              d="M40.625 64.8646L41.1837 63.4819H41.7205L41.1625 64.8646H40.625Z" fill="#C30000"/>
        <path fill-rule="evenodd" clip-rule="evenodd"
              d="M47.519 64.8646L48.0706 63.4819H48.3632L47.8117 64.8646H47.519Z" fill="#C30000"/>
        <path fill-rule="evenodd" clip-rule="evenodd"
              d="M48.6036 64.8646L49.1551 63.4819H49.3105L48.759 64.8646H48.6036Z" fill="#C30000"/>
        <path fill-rule="evenodd" clip-rule="evenodd"
              d="M47.0115 63.4819H46.5256C46.5256 63.4819 46.4921 63.4819 46.4803 63.5115L46.2114 64.3347L45.9427 63.5115C45.9308 63.4819 45.8971 63.4819 45.8971 63.4819H44.9629C44.9426 63.4819 44.9257 63.4988 44.9257 63.5189V63.7984C44.9257 63.5767 44.6897 63.4819 44.5515 63.4819C44.2421 63.4819 44.035 63.6857 43.9705 63.9955C43.967 63.79 43.9499 63.7163 43.8946 63.6409C43.8691 63.6039 43.8324 63.5729 43.7923 63.5472C43.7099 63.4989 43.6359 63.4819 43.4769 63.4819H43.2901C43.2901 63.4819 43.2564 63.4819 43.2444 63.5115L43.0745 63.9326V63.5189C43.0745 63.4988 43.0577 63.4819 43.0375 63.4819H42.6054C42.6054 63.4819 42.572 63.4819 42.5599 63.5115L42.3832 63.9493C42.3832 63.9493 42.3656 63.9931 42.4059 63.9931H42.572V64.8275C42.572 64.8482 42.5883 64.8646 42.6091 64.8646H43.0375C43.0577 64.8646 43.0745 64.8482 43.0745 64.8275V63.9931H43.2415C43.3373 63.9931 43.3576 63.9957 43.3949 64.0131C43.4173 64.0216 43.4376 64.0387 43.4486 64.0585C43.4712 64.101 43.4769 64.1521 43.4769 64.3027V64.8275C43.4769 64.8482 43.4935 64.8646 43.514 64.8646H43.9246C43.9246 64.8646 43.971 64.8646 43.9894 64.8188L44.0804 64.5939C44.2014 64.7633 44.4005 64.8646 44.648 64.8646H44.702C44.702 64.8646 44.7487 64.8646 44.7672 64.8188L44.9257 64.4263V64.8275C44.9257 64.8482 44.9426 64.8646 44.9629 64.8646H45.382C45.382 64.8646 45.4282 64.8646 45.4468 64.8188C45.4468 64.8188 45.6144 64.4026 45.6151 64.3994H45.6153C45.6218 64.3648 45.578 64.3648 45.578 64.3648H45.4284V63.6507L45.8991 64.8188C45.9175 64.8646 45.9638 64.8646 45.9638 64.8646H46.4589C46.4589 64.8646 46.5055 64.8646 46.5239 64.8188L47.0457 63.5267C47.0638 63.4819 47.0115 63.4819 47.0115 63.4819ZM44.9257 64.3648H44.6442C44.5321 64.3648 44.4409 64.2741 44.4409 64.1619C44.4409 64.0499 44.5321 63.9586 44.6442 63.9586H44.7229C44.8347 63.9586 44.9257 64.0499 44.9257 64.1619V64.3648Z"
              fill="white"/>
    </g>
</svg>
