<svg version="1.1"
     width="75" height="30"
     xmlns="http://www.w3.org/2000/svg"
     viewBox="0 0 148.2 94.9">
    <g>
        <path fill="white"
              d="M115.2,47.8c0,25.4-20.6,46.1-46.1,46.1C43.7,93.9,23,73.3,23,47.8C23,22.4,43.7,1.7,69.1,1.7C94.6,1.7,115.2,22.4,115.2,47.8"></path>
        <polygon fill="white" points="0.7,67.9 10.2,44.6 19.2,44.6 9.8,67.9"></polygon>
        <polygon fill="white" points="117,67.9 126.3,44.6 131.2,44.6 121.9,67.9"></polygon>
        <polygon fill="white" points="135.3,67.9 144.6,44.6 147.2,44.6 137.9,67.9"></polygon>
        <path fill="black"
              d="M108.4,44.6h-8.2c0,0-0.6,0-0.8,0.5L94.9,59l-4.5-13.9c-0.2-0.5-0.8-0.5-0.8-0.5H73.9c-0.3,0-0.6,0.3-0.6,0.6V50c0-3.7-4-5.3-6.3-5.3c-5.2,0-8.7,3.4-9.8,8.7c-0.1-3.5-0.3-4.7-1.3-6c-0.4-0.6-1-1.1-1.7-1.6c-1.4-0.8-2.6-1.1-5.3-1.1h-3.1c0,0-0.6,0-0.8,0.5l0,0L42,52.2v-7c0-0.3-0.3-0.6-0.6-0.6h-7.3c0,0-0.6,0-0.8,0.5l-3,7.4c0,0-0.3,0.7,0.4,0.7h2.8v14.1c0,0.3,0.3,0.6,0.6,0.6h7.2c0.3,0,0.6-0.3,0.6-0.6V53.2h2.8c1.6,0,2,0,2.6,0.3c0.4,0.1,0.7,0.4,0.9,0.8c0.4,0.7,0.5,1.6,0.5,4.1v8.8c0,0.3,0.3,0.6,0.6,0.6h6.9c0,0,0.8,0,1.1-0.8l1.5-3.8c2,2.9,5.4,4.6,9.6,4.6h0.9c0,0,0.8,0,1.1-0.8l2.7-6.6v6.8c0,0.3,0.3,0.6,0.6,0.6h7.1c0,0,0.8,0,1.1-0.8c0,0,2.8-7,2.8-7.1h0l0,0c0.1-0.6-0.6-0.6-0.6-0.6h-2.5v-12l7.9,19.7c0.3,0.8,1.1,0.8,1.1,0.8h8.3c0,0,0.8,0,1.1-0.8l8.8-21.8C109.3,44.6,108.4,44.6,108.4,44.6z M73.3,59.5h-4.7c-1.9,0-3.4-1.5-3.4-3.4c0-1.9,1.5-3.4,3.4-3.4h1.3c1.9,0,3.4,1.5,3.4,3.4V59.5z"></path>
    </g>
</svg>
