<svg width="42" height="42" viewBox="0 0 42 42" fill="none" xmlns="http://www.w3.org/2000/svg">
<path fill-rule="evenodd" clip-rule="evenodd" d="M10.5 24.0046L24.0046 10.5L31.5 17.9954L17.9954 31.5L10.5 24.0046Z" fill="#FFC166"/>
<path fill-rule="evenodd" clip-rule="evenodd" d="M2.7978 2.7978C6.82148 -1.22588 13.7041 -0.866926 18.1706 3.59956L23.9718 9.40076C24.6761 10.105 24.6761 11.2468 23.9718 11.9511L11.9511 23.9718C11.2468 24.6761 10.105 24.6761 9.40076 23.9718L3.59956 18.1706C-0.866926 13.7041 -1.22588 6.82148 2.7978 2.7978Z" fill="#FFAA33"/>
<path fill-rule="evenodd" clip-rule="evenodd" d="M39.2022 39.2022C35.1785 43.2259 28.2959 42.8669 23.8294 38.4004L18.0282 32.5992C17.3239 31.895 17.3239 30.7532 18.0282 30.0489L30.0489 18.0282C30.7532 17.3239 31.895 17.3239 32.5992 18.0282L38.4004 23.8294C42.8669 28.2959 43.2259 35.1785 39.2022 39.2022Z" fill="#FFAA33"/>
<path fill-rule="evenodd" clip-rule="evenodd" d="M9.625 7C10.1082 7 10.5 6.60825 10.5 6.125C10.5 5.64175 10.1082 5.25 9.625 5.25C9.14175 5.25 8.75 5.64175 8.75 6.125C8.75 6.60825 9.14175 7 9.625 7Z" fill="#7D4C00"/>
<path fill-rule="evenodd" clip-rule="evenodd" d="M14.875 8.75C15.3582 8.75 15.75 8.35825 15.75 7.875C15.75 7.39175 15.3582 7 14.875 7C14.3918 7 14 7.39175 14 7.875C14 8.35825 14.3918 8.75 14.875 8.75Z" fill="#7D4C00"/>
<path fill-rule="evenodd" clip-rule="evenodd" d="M11.375 12.25C11.8582 12.25 12.25 11.8582 12.25 11.375C12.25 10.8918 11.8582 10.5 11.375 10.5C10.8918 10.5 10.5 10.8918 10.5 11.375C10.5 11.8582 10.8918 12.25 11.375 12.25Z" fill="#7D4C00"/>
<path fill-rule="evenodd" clip-rule="evenodd" d="M6.125 10.5C6.60825 10.5 7 10.1082 7 9.625C7 9.14175 6.60825 8.75 6.125 8.75C5.64175 8.75 5.25 9.14175 5.25 9.625C5.25 10.1082 5.64175 10.5 6.125 10.5Z" fill="#7D4C00"/>
<path fill-rule="evenodd" clip-rule="evenodd" d="M7.875 15.75C8.35825 15.75 8.75 15.3582 8.75 14.875C8.75 14.3918 8.35825 14 7.875 14C7.39175 14 7 14.3918 7 14.875C7 15.3582 7.39175 15.75 7.875 15.75Z" fill="#7D4C00"/>
<path fill-rule="evenodd" clip-rule="evenodd" d="M13.125 17.5C13.6082 17.5 14 17.1082 14 16.625C14 16.1418 13.6082 15.75 13.125 15.75C12.6418 15.75 12.25 16.1418 12.25 16.625C12.25 17.1082 12.6418 17.5 13.125 17.5Z" fill="#7D4C00"/>
<path fill-rule="evenodd" clip-rule="evenodd" d="M16.625 14C17.1082 14 17.5 13.6082 17.5 13.125C17.5 12.6418 17.1082 12.25 16.625 12.25C16.1418 12.25 15.75 12.6418 15.75 13.125C15.75 13.6082 16.1418 14 16.625 14Z" fill="#7D4C00"/>
<path fill-rule="evenodd" clip-rule="evenodd" d="M28.875 26.25C29.3582 26.25 29.75 25.8582 29.75 25.375C29.75 24.8918 29.3582 24.5 28.875 24.5C28.3918 24.5 28 24.8918 28 25.375C28 25.8582 28.3918 26.25 28.875 26.25Z" fill="#7D4C00"/>
<path fill-rule="evenodd" clip-rule="evenodd" d="M34.125 28C34.6082 28 35 27.6082 35 27.125C35 26.6418 34.6082 26.25 34.125 26.25C33.6418 26.25 33.25 26.6418 33.25 27.125C33.25 27.6082 33.6418 28 34.125 28Z" fill="#7D4C00"/>
<path fill-rule="evenodd" clip-rule="evenodd" d="M30.625 31.5C31.1082 31.5 31.5 31.1082 31.5 30.625C31.5 30.1418 31.1082 29.75 30.625 29.75C30.1418 29.75 29.75 30.1418 29.75 30.625C29.75 31.1082 30.1418 31.5 30.625 31.5Z" fill="#7D4C00"/>
<path fill-rule="evenodd" clip-rule="evenodd" d="M25.375 29.75C25.8582 29.75 26.25 29.3582 26.25 28.875C26.25 28.3918 25.8582 28 25.375 28C24.8918 28 24.5 28.3918 24.5 28.875C24.5 29.3582 24.8918 29.75 25.375 29.75Z" fill="#7D4C00"/>
<path fill-rule="evenodd" clip-rule="evenodd" d="M27.125 35C27.6082 35 28 34.6082 28 34.125C28 33.6418 27.6082 33.25 27.125 33.25C26.6418 33.25 26.25 33.6418 26.25 34.125C26.25 34.6082 26.6418 35 27.125 35Z" fill="#7D4C00"/>
<path fill-rule="evenodd" clip-rule="evenodd" d="M32.375 36.75C32.8582 36.75 33.25 36.3582 33.25 35.875C33.25 35.3918 32.8582 35 32.375 35C31.8918 35 31.5 35.3918 31.5 35.875C31.5 36.3582 31.8918 36.75 32.375 36.75Z" fill="#7D4C00"/>
<path fill-rule="evenodd" clip-rule="evenodd" d="M35.875 33.25C36.3582 33.25 36.75 32.8582 36.75 32.375C36.75 31.8918 36.3582 31.5 35.875 31.5C35.3918 31.5 35 31.8918 35 32.375C35 32.8582 35.3918 33.25 35.875 33.25Z" fill="#7D4C00"/>
</svg>
