<svg width="59" height="58" viewBox="0 0 59 58" fill="none" xmlns="http://www.w3.org/2000/svg">
<path fill-rule="evenodd" clip-rule="evenodd" d="M29.183 58C45.3003 58 58.3659 45.0163 58.3659 29C58.3659 12.9837 45.3003 0 29.183 0C13.0657 0 0 12.9837 0 29C0 45.0163 13.0657 58 29.183 58Z" fill="#99C3FF"/>
<path fill-rule="evenodd" clip-rule="evenodd" d="M44.9931 15.7154H40.2113V13.6788C40.2113 13.3041 39.9052 13 39.5282 13H35.4294C35.0524 13 34.7463 13.3041 34.7463 13.6788V15.7154H23.8164V13.6788C23.8164 13.3041 23.5103 13 23.1332 13H19.0345C18.6574 13 18.3514 13.3041 18.3514 13.6788V15.7154H13.5695C13.1925 15.7154 12.8864 16.0195 12.8864 16.3942V44.9054C12.8864 45.2802 13.1925 45.5843 13.5695 45.5843H44.9931C45.3702 45.5843 45.6763 45.2802 45.6763 44.9054V16.3942C45.6763 16.0195 45.3702 15.7154 44.9931 15.7154ZM36.1126 14.3577H38.845V18.4307H36.1126V14.3577ZM22.4501 14.3577H19.7176V18.4307H22.4501V14.3577ZM18.3514 17.073V19.1096C18.3514 19.4843 18.6574 19.7884 19.0345 19.7884H23.1332C23.5103 19.7884 23.8164 19.4843 23.8164 19.1096V17.073H34.7463V19.1096C34.7463 19.4843 35.0523 19.7884 35.4294 19.7884H39.5282C39.9052 19.7884 40.2113 19.4843 40.2113 19.1096V17.073H44.31V22.5037H14.2527V17.073H18.3514ZM14.2527 23.8614V44.2266H44.31V23.8614H14.2527Z" fill="#3E3832"/>
<path fill-rule="evenodd" clip-rule="evenodd" d="M24.7461 32.9444C25.314 32.9535 25.7826 32.5037 25.7932 31.9386C25.8039 31.3743 25.3516 30.9049 24.7853 30.8924C24.2113 30.8799 23.7355 31.338 23.7301 31.9073C23.7252 32.4754 24.1755 32.935 24.7461 32.9444ZM24.2801 33.7416C24.2139 33.7197 24.1626 33.7045 24.1135 33.686C23.1505 33.3269 22.6465 32.3004 22.961 31.3358C23.271 30.3814 24.29 29.8386 25.2691 30.107C26.0853 30.33 26.6456 31.0632 26.6555 31.9212C26.6646 32.7388 26.1028 33.4834 25.293 33.7216C25.1968 33.7499 25.1344 33.7711 25.1329 33.9022C25.1165 35.1084 25.0865 36.3137 25.0667 37.5195C25.0435 38.9565 26.0907 40.1249 27.5284 40.2772C29.0822 40.4416 30.7326 39.1886 30.5036 37.1389C30.1377 37.0107 29.7733 36.9106 29.4325 36.7582C28.7711 36.463 28.1998 36.0408 27.7722 35.4478C27.5646 35.1601 27.4124 34.8464 27.4189 34.4847C27.4451 32.9467 27.463 31.4087 27.5151 29.8719C27.5433 29.055 27.9639 28.4503 28.6901 28.0663C28.7935 28.0111 28.8616 27.948 28.9156 27.8433C29.1043 27.4759 29.5299 27.2982 29.9251 27.4086C30.3275 27.5205 30.5999 27.8841 30.5846 28.2896C30.5698 28.7047 30.2651 29.0532 29.8543 29.1303C29.5295 29.1907 29.2633 29.0777 29.0274 28.8574C28.5999 29.1155 28.3774 29.4871 28.3667 29.9784C28.3359 31.4269 28.3131 32.8745 28.2766 34.3229C28.2698 34.5928 28.3504 34.8169 28.5132 35.0222C28.7939 35.3756 29.1472 35.6398 29.5364 35.8609C30.8593 36.6127 32.5751 36.2665 33.5047 35.0607C33.6412 34.8842 33.7177 34.6945 33.7177 34.4647C33.7169 33.9593 33.734 33.4536 33.7439 32.9478C33.7629 31.9791 33.7865 31.0103 33.7995 30.0408C33.8059 29.5615 33.583 29.2017 33.1875 28.9375C32.9611 29.139 32.7154 29.2369 32.4298 29.1938C31.9901 29.1276 31.6774 28.7799 31.663 28.3558C31.6481 27.9124 31.9334 27.5458 32.3685 27.4502C32.7839 27.3594 33.1882 27.5775 33.3746 27.9876C33.3974 28.0394 33.4427 28.0935 33.4917 28.1211C34.2848 28.5659 34.6773 29.2365 34.6591 30.1421C34.6317 31.5641 34.5929 32.986 34.5815 34.408C34.5777 34.9129 34.4058 35.3325 34.0775 35.6988C33.437 36.4154 32.6302 36.8501 31.6957 37.0633C31.5937 37.0871 31.4907 37.1045 31.3979 37.1226C31.3712 37.4836 31.3678 37.8324 31.3176 38.1745C31.0453 40.0565 29.1396 41.4251 27.2473 41.1087C25.4319 40.8041 24.1748 39.3043 24.2067 37.4764C24.2276 36.2755 24.2535 35.0755 24.2775 33.8743C24.2782 33.8331 24.2786 33.7915 24.2801 33.7416Z" fill="#262626"/>
<path fill-rule="evenodd" clip-rule="evenodd" d="M23.6002 31.9183C23.6002 32.5352 24.103 33.0352 24.7237 33.0352C25.3445 33.0352 25.8477 32.5352 25.8477 31.9183C25.8477 31.3015 25.3445 30.8014 24.7237 30.8014C24.103 30.8014 23.6002 31.3015 23.6002 31.9183" fill="#6A6A6A"/>
</svg>
