<svg width="55" height="52" viewBox="0 0 55 52" fill="none" xmlns="http://www.w3.org/2000/svg">
<path fill-rule="evenodd" clip-rule="evenodd" d="M27.1685 0C42.1733 0 54.3371 11.6406 54.3371 26C54.3371 40.3594 42.1733 52 27.1685 52C12.1638 52 0 40.3594 0 26C0 11.6406 12.1638 0 27.1685 0ZM27.1685 4.33333C14.6646 4.33333 4.52809 14.0338 4.52809 26C4.52809 37.9662 14.6646 47.6667 27.1685 47.6667C39.6725 47.6667 49.809 37.9662 49.809 26C49.809 14.0338 39.6725 4.33333 27.1685 4.33333ZM27.1685 34.6667C29.0441 34.6667 30.5646 36.1217 30.5646 37.9167C30.5646 39.7116 29.0441 41.1667 27.1685 41.1667C25.2929 41.1667 23.7725 39.7116 23.7725 37.9167C23.7725 36.1217 25.2929 34.6667 27.1685 34.6667ZM29.4326 10.8333V30.3333H24.9045V10.8333H29.4326Z" fill="#FFAA33"/>
</svg>
