<svg width="24" height="24" viewBox="0 0 24 24" fill="none" xmlns="http://www.w3.org/2000/svg">
<path fill-rule="evenodd" clip-rule="evenodd" d="M20 2H23.5C23.776 2 24 2.224 24 2.5V7H0V2.5C0 2.224 0.224 2 0.5 2H4V0.5C4 0.224 4.224 0 4.5 0H7.5C7.776 0 8 0.224 8 0.5V2H16V0.5C16 0.224 16.224 0 16.5 0H19.5C19.776 0 20 0.224 20 0.5V2ZM5 4H7V1H5V4ZM19 4H17V1H19V4ZM0.5 24C0.224 24 0 23.776 0 23.5V8H24V23.5C24 23.776 23.776 24 23.5 24H0.5ZM2 15.5C2 15.776 2.224 16 2.5 16H6V19H2.5C2.224 19 2 19.224 2 19.5C2 19.776 2.224 20 2.5 20H6V21.5C6 21.776 6.224 22 6.5 22C6.776 22 7 21.776 7 21.5V20H11V21.5C11 21.776 11.224 22 11.5 22C11.776 22 12 21.776 12 21.5V20H16V21.5C16 21.776 16.224 22 16.5 22C16.776 22 17 21.776 17 21.5V20H21.5C21.776 20 22 19.776 22 19.5C22 19.224 21.776 19 21.5 19H17V16H21.5C21.776 16 22 15.776 22 15.5C22 15.224 21.776 15 21.5 15H17V12H21.5C21.776 12 22 11.776 22 11.5C22 11.224 21.776 11 21.5 11H17V9.5C17 9.224 16.776 9 16.5 9C16.224 9 16 9.224 16 9.5V11H12V9.5C12 9.224 11.776 9 11.5 9C11.224 9 11 9.224 11 9.5V11H7V9.5C7 9.224 6.776 9 6.5 9C6.224 9 6 9.224 6 9.5V11H2.5C2.224 11 2 11.224 2 11.5C2 11.776 2.224 12 2.5 12H6V15H2.5C2.224 15 2 15.224 2 15.5ZM12 12H16V15H12V12ZM11 16H7V19H11V16ZM16 16H12V19H16V16ZM11 12H7V15H11V12Z" fill="#0067C5"/>
</svg>
