<svg version="1.1" xmlns="http://www.w3.org/2000/svg" x="0px" y="0px" viewBox="0 0 45 45" style="enable-background:new 0 0 45 45;" xml:space="preserve">
    <path fill-rule="evenodd" clip-rule="evenodd" fill="#59514B" d="M38.7,7.9c0,3.5-2.8,6.4-6.3,6.4s-6.3-2.9-6.3-6.4c0-3.5,2.8-6.4,6.3-6.4S38.7,4.4,38.7,7.9z M36.9,7.9
        c0-2.5-2-4.6-4.5-4.6s-4.5,2.1-4.5,4.6c0,2.5,2,4.6,4.5,4.6S36.9,10.5,36.9,7.9z M43.8,33c-2.1-2.2-3.9-2.8-6.3-2.1l-6.6,2.2
        c-0.2-1.2-1.2-2.3-3-2.3h-5c-1.3-1.3-4.4-3.7-8.5-3.7H9.9v-0.9c0-0.5-0.4-0.9-0.9-0.9H1.8c-0.5,0-0.9,0.4-0.9,0.9V41
        c0,0.5,0.4,0.9,0.9,0.9H9c0.5,0,0.9-0.4,0.9-0.9v-1.6c1.5,0.5,2.8,1,4,1.4l0,0l0,0l0,0l0,0l0,0l0.1,0c4.7,1.7,7.4,2.6,9.8,2.6
        c2.9,0,5.5-1.4,11-4.4l0,0c2.3-1.2,5.2-2.8,8.8-4.7c0.3-0.1,0.4-0.4,0.5-0.7C44.1,33.5,44,33.2,43.8,33z M8.1,40.1H2.7V27.2h5.4
        V40.1z M33.9,37.5L33.9,37.5c2.1-1.1,4.6-2.5,7.7-4.1c-1.4-1.1-2.4-1.1-3.6-0.7l-7.7,2.6c-0.5,0.6-1.3,1.1-2.5,1.1H18
        c-0.5,0-0.9-0.4-0.9-0.9c0-0.5,0.4-0.9,0.9-0.9h9.9c0.9,0,1.3-0.5,1.3-0.9s-0.3-0.9-1.3-0.9h-5.4c-0.2,0-0.5-0.1-0.6-0.3
        c-1-1-3.7-3.4-7.5-3.4H9.9v8.5c1.8,0.6,3.3,1.1,4.7,1.6C24.4,42.7,24.4,42.7,33.9,37.5z M23.4,27.2c3.5,0,6.3-2.9,6.3-6.4
        s-2.8-6.4-6.3-6.4s-6.3,2.9-6.3,6.4S19.9,27.2,23.4,27.2z M23.4,16.2c2.5,0,4.5,2.1,4.5,4.6c0,2.5-2,4.6-4.5,4.6s-4.5-2.1-4.5-4.6
        C18.9,18.2,20.9,16.2,23.4,16.2z M23.4,23.5c0.5,0,0.9-0.4,0.9-0.9v-3.7c0-0.5-0.4-0.9-0.9-0.9s-0.9,0.4-0.9,0.9v3.7
        C22.5,23.1,22.9,23.5,23.4,23.5z M33.3,9.8c0,0.5-0.4,0.9-0.9,0.9c-0.5,0-0.9-0.4-0.9-0.9V6.1c0-0.5,0.4-0.9,0.9-0.9
        c0.5,0,0.9,0.4,0.9,0.9V9.8z"
    />
</svg>
