<svg version="1.1" x="0px" y="0px" viewBox="0 0 45 45" style="enable-background:new 0 0 45 45;" xmlns="http://www.w3.org/2000/svg" xml:space="preserve">
    <path fill-rule="evenodd" clip-rule="evenodd" fill="#59514B" d="M39,4.7h-5.6V2.3c0-0.4-0.4-0.8-0.8-0.8h-4.8c-0.4,0-0.8,0.4-0.8,0.8v2.4H14.3V2.3c0-0.4-0.4-0.8-0.8-0.8H8.7
        c-0.4,0-0.8,0.4-0.8,0.8v2.4H2.3C1.9,4.7,1.5,5,1.5,5.5V39c0,0.4,0.4,0.8,0.8,0.8h15.2v-1.6H3.1v-24h35.1v8h1.6V5.5
        C39.8,5,39.5,4.7,39,4.7z M28.6,3.1h3.2v4.8h-3.2V3.1z M12.7,3.1H9.5v4.8h3.2V3.1z M7.9,6.3v2.4c0,0.4,0.4,0.8,0.8,0.8h4.8
        c0.4,0,0.8-0.4,0.8-0.8V6.3h12.8v2.4c0,0.4,0.4,0.8,0.8,0.8h4.8c0.4,0,0.8-0.4,0.8-0.8V6.3h4.8v6.4H3.1V6.3H7.9z M40.8,26.1
        c1.5,0,2.7,1.2,2.7,2.7c0,1.3-0.9,2.4-2.2,2.7v7.1c0,1.5-1.2,2.7-2.7,2.7c-1.5,0-2.7-1.2-2.7-2.7v-3.3c0-1.2-1-2.2-2.2-2.2
        c-1.2,0-2.2,1-2.2,2.2v5.4c0,1.5-1.2,2.7-2.7,2.7c-1.5,0-2.7-1.2-2.7-2.7v-7.7c-3-0.3-5.4-2.8-5.4-6v-5.4c0-1.3,0.9-2.4,2.2-2.7
        v-1.1c0-0.3,0.2-0.5,0.5-0.5c0.9,0,2.2,0.6,2.2,2.2c0,1.6-1.3,2.2-2.2,2.2c-0.3,0-0.5-0.2-0.5-0.5v-1c-0.6,0.2-1.1,0.8-1.1,1.5v5.4
        c0,2.7,2.2,4.9,4.9,4.9s4.9-2.2,4.9-4.9v-5.4c0-0.7-0.5-1.3-1.1-1.5v1c0,0.3-0.2,0.5-0.5,0.5c-0.9,0-2.2-0.6-2.2-2.2
        c0-1.6,1.3-2.2,2.2-2.2c0.3,0,0.5,0.2,0.5,0.5v1.1c1.2,0.3,2.2,1.4,2.2,2.7v5.4c0,3.1-2.4,5.7-5.4,6v7.7c0,0.9,0.7,1.6,1.6,1.6
        c0.9,0,1.6-0.7,1.6-1.6v-5.4c0-1.8,1.5-3.3,3.3-3.3c1.8,0,3.3,1.5,3.3,3.3v3.3c0,0.9,0.7,1.6,1.6,1.6s1.6-0.7,1.6-1.6v-7.1
        c-1.2-0.3-2.2-1.4-2.2-2.7C38.1,27.3,39.3,26.1,40.8,26.1z M28.8,19.6c0,0.6,0.3,0.8,0.5,1v-1.9C29.1,18.7,28.8,19,28.8,19.6z
         M24.4,19.6c0-0.6-0.3-0.8-0.5-1v1.9C24.2,20.4,24.4,20.1,24.4,19.6z M39.1,28.8c0,0.9,0.7,1.6,1.6,1.6c0.9,0,1.6-0.7,1.6-1.6
        c0-0.9-0.7-1.6-1.6-1.6C39.9,27.2,39.1,27.9,39.1,28.8z"
    />
</svg>
