<svg width="24" height="24" viewBox="0 0 24 24" fill="none" xmlns="http://www.w3.org/2000/svg">
    <path fill-rule="evenodd" clip-rule="evenodd" d="M21.0719 3.60096C20.7993 3.4512 20.4921 3.35904 20.159 3.35904H2.87898C2.54682 3.35904 2.23866 3.4512 1.96602 3.60096L11.519 9.5136L21.0719 3.60096ZM20.7811 10.7808C20.9683 10.5936 21.2726 10.5936 21.4598 10.7808L22.079 11.401V5.27904C22.079 4.91328 21.9715 4.57536 21.7929 4.28352L11.7724 10.487C11.6947 10.535 11.6073 10.559 11.519 10.559C11.4316 10.559 11.3433 10.535 11.2665 10.487L1.24602 4.28352C1.06746 4.57536 0.958984 4.91328 0.958984 5.27904V15.839C0.958984 16.8979 1.8201 17.759 2.87898 17.759H13.8038L20.7811 10.7808ZM22.079 12.7594L23.8598 14.5392C23.95 14.6294 23.9999 14.7523 23.9999 14.88C23.9999 15.0077 23.95 15.1296 23.8598 15.2198L22.2796 16.8L19.2009 13.7213L21.1209 11.8013L22.079 12.7594ZM12.4982 22.9075C12.4502 23.0755 12.4972 23.256 12.6201 23.3789C12.7468 23.5066 12.9311 23.5478 13.0915 23.5008L16.1798 22.6186L13.3804 19.8192L12.4982 22.9075ZM15.1622 17.759H15.1612L18.5222 14.399L21.6009 17.4778L21.3196 17.759L16.9977 22.08L13.919 19.0013L15.1622 17.759Z" fill="#0067C5"/>
</svg>
