<svg width="27" height="30" viewBox="0 0 27 30" fill="none" xmlns="http://www.w3.org/2000/svg">
    <path fill-rule="evenodd" clip-rule="evenodd" d="M26.5 13.125C26.5 11.4025 25.0987 10 23.375 10C21.6513 10 20.25 11.4025 20.25 13.125C20.25 14.6337 21.325 15.8963 22.75 16.1863V24.375C22.75 25.4088 21.9088 26.25 20.875 26.25C19.8412 26.25 19 25.4088 19 24.375V20.6262C19 18.5575 17.3175 16.875 15.25 16.875C13.1825 16.875 11.5 18.5575 11.5 20.625V26.875C11.5 27.9088 10.6587 28.75 9.625 28.75C8.59125 28.75 7.75 27.9088 7.75 26.875V18.0938C11.2487 17.7763 14 14.83 14 11.25V5C14 3.49125 12.925 2.22875 11.5 1.93875V0.625C11.5 0.28 11.22 0 10.875 0C9.87 0 8.375 0.66625 8.375 2.5C8.375 4.33375 9.87 5 10.875 5C11.22 5 11.5 4.72 11.5 4.375V3.24C12.2262 3.49875 12.75 4.18625 12.75 5V11.25C12.75 14.3512 10.2262 16.875 7.125 16.875C4.02375 16.875 1.5 14.3512 1.5 11.25V5C1.5 4.18625 2.02375 3.49875 2.75 3.24V4.375C2.75 4.72 3.03 5 3.375 5C4.38 5 5.875 4.33375 5.875 2.5C5.875 0.66625 4.38 0 3.375 0C3.03 0 2.75 0.28 2.75 0.625V1.93875C1.325 2.22875 0.25 3.49125 0.25 5V11.25C0.25 14.83 3.00125 17.7763 6.5 18.0938V26.875C6.5 28.5975 7.90125 30 9.625 30C11.3488 30 12.75 28.5975 12.75 26.875V20.625C12.75 19.2463 13.8713 18.125 15.25 18.125C16.6287 18.125 17.75 19.2463 17.75 20.6262V24.375C17.75 26.0975 19.1513 27.5 20.875 27.5C22.5987 27.5 24 26.0975 24 24.375V16.1863C25.425 15.8963 26.5 14.6337 26.5 13.125ZM10.25 3.6125C9.935 3.4625 9.625 3.14875 9.625 2.5C9.625 1.855 9.93125 1.54125 10.25 1.39V3.6125ZM4 1.3875C4.315 1.5375 4.625 1.85125 4.625 2.5C4.625 3.14375 4.32 3.4575 4 3.61V1.3875ZM23.375 15C22.3412 15 21.5 14.1587 21.5 13.125C21.5 12.0913 22.3412 11.25 23.375 11.25C24.4088 11.25 25.25 12.0913 25.25 13.125C25.25 14.1587 24.4088 15 23.375 15Z" fill="#3E3832"/>
</svg>
